<svg width="601" height="615" fill="none" xmlns="http://www.w3.org/2000/svg">
<path d="M438.54 35.644c.568.136.996.38 1.284.732.296.344.444.788.444 1.332 0 .728-.268 1.292-.804 1.692-.528.4-1.3.6-2.316.6h-3.84v-8.4h3.612c.92 0 1.636.188 2.148.564.52.368.78.9.78 1.596 0 .456-.116.844-.348 1.164-.224.32-.544.56-.96.72zm-4.044-.348h2.34c.584 0 1.028-.116 1.332-.348.312-.232.468-.572.468-1.02 0-.448-.156-.788-.468-1.02-.312-.24-.756-.36-1.332-.36h-2.34v2.748zm2.628 3.756c1.288 0 1.932-.48 1.932-1.44 0-.48-.164-.832-.492-1.056-.32-.232-.8-.348-1.44-.348h-2.628v2.844h2.628zm10.244-7.452V40h-1.188v-7.356h-1.896V31.6h3.084zm2.641 6.828a.71.71 0 01.552.24.78.78 0 01.228.576c0 .12-.016.236-.048.348a4.964 4.964 0 01-.156.516l-.564 1.668h-.756l.444-1.788a.801.801 0 01-.372-.276.842.842 0 01-.132-.468c0-.24.076-.436.228-.588a.78.78 0 01.576-.228zm4.315-3.48c1.2 0 2.08.228 2.64.684.568.448.852 1.064.852 1.848 0 .496-.12.944-.36 1.344-.232.392-.588.704-1.068.936-.472.224-1.056.336-1.752.336a5.615 5.615 0 01-1.716-.264c-.552-.184-1.008-.436-1.368-.756l.552-.948c.288.272.656.492 1.104.66.448.16.92.24 1.416.24.632 0 1.12-.132 1.464-.396.352-.272.528-.64.528-1.104 0-.504-.192-.884-.576-1.14-.384-.264-1.04-.396-1.968-.396h-1.908l.444-4.392h4.74v1.044h-3.732l-.228 2.304h.936zm7.821 1.26h3.228v.996h-3.228v-.996zm13.612 2.748V40h-6.036v-.816l3.42-3.3c.416-.4.696-.744.84-1.032.144-.296.216-.592.216-.888 0-.44-.156-.78-.468-1.02-.304-.248-.744-.372-1.32-.372-.928 0-1.644.304-2.148.912l-.816-.708c.328-.4.756-.712 1.284-.936a4.594 4.594 0 011.788-.336c.88 0 1.58.212 2.1.636.52.416.78.984.78 1.704 0 .448-.096.872-.288 1.272-.192.4-.556.856-1.092 1.368l-2.568 2.472h4.308zm8.122-5.376c.616 0 1.168.136 1.656.408.488.272.868.652 1.14 1.14.28.488.42 1.052.42 1.692 0 .64-.14 1.208-.42 1.704a2.894 2.894 0 01-1.14 1.14 3.343 3.343 0 01-1.656.408c-.456 0-.876-.088-1.26-.264a2.621 2.621 0 01-.96-.768v3.288h-1.152V33.64h1.104v1.008c.256-.352.58-.616.972-.792a3.012 3.012 0 011.296-.276zm-.096 5.484a2.15 2.15 0 001.092-.276 2.03 2.03 0 00.768-.792c.192-.344.288-.736.288-1.176 0-.44-.096-.828-.288-1.164a1.93 1.93 0 00-.768-.792 2.15 2.15 0 00-1.092-.276c-.4 0-.764.096-1.092.288-.32.184-.576.444-.768.78a2.385 2.385 0 00-.276 1.164c0 .44.092.832.276 1.176.184.336.44.6.768.792.328.184.692.276 1.092.276zm7.195-5.484c.88 0 1.552.216 2.016.648.472.432.708 1.076.708 1.932V40h-1.092v-.84a1.853 1.853 0 01-.828.684c-.352.152-.772.228-1.26.228-.712 0-1.284-.172-1.716-.516-.424-.344-.636-.796-.636-1.356s.204-1.008.612-1.344c.408-.344 1.056-.516 1.944-.516h1.824v-.228c0-.496-.144-.876-.432-1.14-.288-.264-.712-.396-1.272-.396-.376 0-.744.064-1.104.192a2.76 2.76 0 00-.912.492l-.48-.864c.328-.264.72-.464 1.176-.6.456-.144.94-.216 1.452-.216zm-.264 5.604c.44 0 .82-.096 1.14-.288.32-.2.552-.48.696-.84v-.888h-1.776c-.976 0-1.464.328-1.464.984 0 .32.124.572.372.756.248.184.592.276 1.032.276zm8.401-2.496c.424.112.752.292.984.54a1.3 1.3 0 01.348.924c0 .376-.128.712-.384 1.008-.256.288-.612.516-1.068.684-.448.16-.952.24-1.512.24-.472 0-.936-.06-1.392-.18a4.322 4.322 0 01-1.2-.54l.348-.876c.304.192.652.344 1.044.456.392.104.788.156 1.188.156.544 0 .976-.092 1.296-.276.328-.192.492-.448.492-.768 0-.296-.132-.524-.396-.684-.256-.16-.62-.24-1.092-.24h-1.164v-.828h1.08c.432 0 .772-.076 1.02-.228.248-.152.372-.36.372-.624 0-.288-.148-.512-.444-.672-.288-.16-.68-.24-1.176-.24-.632 0-1.3.164-2.004.492l-.312-.888a5.335 5.335 0 012.436-.588c.512 0 .972.072 1.38.216.408.144.728.348.96.612.232.264.348.564.348.9 0 .312-.104.592-.312.84a1.928 1.928 0 01-.84.564zm5.351-3.108c.88 0 1.552.216 2.016.648.472.432.708 1.076.708 1.932V40h-1.092v-.84a1.853 1.853 0 01-.828.684c-.352.152-.772.228-1.26.228-.712 0-1.284-.172-1.716-.516-.424-.344-.636-.796-.636-1.356s.204-1.008.612-1.344c.408-.344 1.056-.516 1.944-.516h1.824v-.228c0-.496-.144-.876-.432-1.14-.288-.264-.712-.396-1.272-.396-.376 0-.744.064-1.104.192a2.76 2.76 0 00-.912.492l-.48-.864c.328-.264.72-.464 1.176-.6.456-.144.94-.216 1.452-.216zm-.264 5.604c.44 0 .82-.096 1.14-.288.32-.2.552-.48.696-.84v-.888h-1.776c-.976 0-1.464.328-1.464.984 0 .32.124.572.372.756.248.184.592.276 1.032.276zm12.617-2.484c.824.208 1.236.724 1.236 1.548 0 .56-.212.992-.636 1.296-.416.304-1.04.456-1.872.456h-3.06v-6.36h2.952c.752 0 1.34.144 1.764.432.424.28.636.68.636 1.2 0 .336-.092.628-.276.876-.176.24-.424.424-.744.552zm-3.204-.324h1.728c.44 0 .772-.08.996-.24.232-.16.348-.392.348-.696 0-.608-.448-.912-1.344-.912h-1.728v1.848zm1.848 2.736c.48 0 .84-.076 1.08-.228.24-.152.36-.388.36-.708 0-.328-.112-.572-.336-.732-.216-.16-.56-.24-1.032-.24h-1.92v1.908h1.848zm7.263-3.312c.8.008 1.412.192 1.836.552.424.36.636.868.636 1.524 0 .688-.232 1.22-.696 1.596-.456.368-1.112.548-1.968.54L519.858 40v-6.36h1.152v2.148l1.716.012zm3.42-2.16h1.152V40h-1.152v-6.36zm-3.696 5.496c.52.008.912-.096 1.176-.312.272-.216.408-.536.408-.96 0-.416-.132-.72-.396-.912-.264-.192-.66-.292-1.188-.3l-1.44-.024v2.496l1.44.012zm16.148-5.496V40h-9.06v-6.36h1.152v5.352h2.808V33.64h1.152v5.352h2.796V33.64h1.152zm7.985 3.216c0 .088-.008.204-.024.348h-5.16c.072.56.316 1.012.732 1.356.424.336.948.504 1.572.504.76 0 1.372-.256 1.836-.768l.636.744a2.777 2.777 0 01-1.08.768c-.424.176-.9.264-1.428.264-.672 0-1.268-.136-1.788-.408a3.033 3.033 0 01-1.212-1.164 3.357 3.357 0 01-.42-1.68c0-.616.136-1.172.408-1.668.28-.496.66-.88 1.14-1.152a3.244 3.244 0 011.644-.42c.608 0 1.148.14 1.62.42.48.272.852.656 1.116 1.152.272.496.408 1.064.408 1.704zm-3.144-2.304c-.552 0-1.016.168-1.392.504-.368.336-.584.776-.648 1.32h4.08c-.064-.536-.284-.972-.66-1.308-.368-.344-.828-.516-1.38-.516zM438.792 50.64l-3.084 6.996c-.272.648-.592 1.104-.96 1.368-.36.264-.796.396-1.308.396-.312 0-.616-.052-.912-.156a1.807 1.807 0 01-.72-.432l.492-.864c.328.312.708.468 1.14.468.28 0 .512-.076.696-.228.192-.144.364-.396.516-.756l.204-.444-2.808-6.348h1.2l2.22 5.088 2.196-5.088h1.128zm3.776 6.432c-.648 0-1.228-.14-1.74-.42-.504-.28-.9-.664-1.188-1.152a3.284 3.284 0 01-.432-1.68c0-.624.144-1.18.432-1.668.288-.496.684-.88 1.188-1.152.512-.28 1.092-.42 1.74-.42.576 0 1.088.116 1.536.348a2.47 2.47 0 011.056 1.008l-.876.564a1.957 1.957 0 00-.744-.684 2.122 2.122 0 00-.984-.228 2.31 2.31 0 00-1.128.276 2.008 2.008 0 00-.78.792 2.385 2.385 0 00-.276 1.164c0 .448.092.844.276 1.188.192.336.452.596.78.78a2.31 2.31 0 001.128.276c.36 0 .688-.076.984-.228.296-.152.544-.38.744-.684l.876.552c-.248.44-.6.78-1.056 1.02-.448.232-.96.348-1.536.348zm8.741-5.424h-2.328V57h-1.152v-5.352h-2.328V50.64h5.808v1.008zm3.621 5.424c-.632 0-1.2-.14-1.704-.42-.504-.28-.9-.664-1.188-1.152a3.357 3.357 0 01-.42-1.68c0-.624.14-1.18.42-1.668.288-.496.684-.88 1.188-1.152a3.449 3.449 0 011.704-.42c.632 0 1.196.14 1.692.42.504.272.896.656 1.176 1.152.288.488.432 1.044.432 1.668 0 .624-.144 1.184-.432 1.68-.28.488-.672.872-1.176 1.152-.496.28-1.06.42-1.692.42zm0-1.008a2.15 2.15 0 001.092-.276 2.03 2.03 0 00.768-.792c.184-.344.276-.736.276-1.176 0-.44-.092-.828-.276-1.164a1.93 1.93 0 00-.768-.792 2.15 2.15 0 00-1.092-.276c-.408 0-.776.092-1.104.276-.32.184-.576.448-.768.792a2.385 2.385 0 00-.276 1.164c0 .44.092.832.276 1.176.192.336.448.6.768.792.328.184.696.276 1.104.276zm4.963-5.424h1.152v4.632l3.9-4.632h1.044V57h-1.152v-4.632L460.949 57h-1.056v-6.36zm2.976-.828c-.592 0-1.052-.14-1.38-.42-.328-.288-.496-.7-.504-1.236h.78a.992.992 0 00.3.72c.2.176.464.264.792.264s.592-.088.792-.264a.97.97 0 00.312-.72h.804c-.008.536-.18.948-.516 1.236-.336.28-.796.42-1.38.42zm10.432.828V57h-1.152v-2.568c-.688.32-1.372.48-2.052.48-.792 0-1.404-.184-1.836-.552-.432-.368-.648-.92-.648-1.656V50.64h1.152v1.992c0 .44.136.772.408.996.28.224.668.336 1.164.336.56 0 1.164-.14 1.812-.42V50.64h1.152zm2.237 0h1.152v4.632l3.9-4.632h1.044V57h-1.152v-4.632L476.594 57h-1.056v-6.36zm12.664 3.06c.824.208 1.236.724 1.236 1.548 0 .56-.212.992-.636 1.296-.416.304-1.04.456-1.872.456h-3.06v-6.36h2.952c.752 0 1.34.144 1.764.432.424.28.636.68.636 1.2 0 .336-.092.628-.276.876-.176.24-.424.424-.744.552zm-3.204-.324h1.728c.44 0 .772-.08.996-.24.232-.16.348-.392.348-.696 0-.608-.448-.912-1.344-.912h-1.728v1.848zm1.848 2.736c.48 0 .84-.076 1.08-.228.24-.152.36-.388.36-.708 0-.328-.112-.572-.336-.732-.216-.16-.56-.24-1.032-.24h-1.92v1.908h1.848zm7.119.96c-.632 0-1.2-.14-1.704-.42-.504-.28-.9-.664-1.188-1.152a3.357 3.357 0 01-.42-1.68c0-.624.14-1.18.42-1.668.288-.496.684-.88 1.188-1.152a3.449 3.449 0 011.704-.42c.632 0 1.196.14 1.692.42.504.272.896.656 1.176 1.152.288.488.432 1.044.432 1.668 0 .624-.144 1.184-.432 1.68-.28.488-.672.872-1.176 1.152-.496.28-1.06.42-1.692.42zm0-1.008a2.15 2.15 0 001.092-.276 2.03 2.03 0 00.768-.792c.184-.344.276-.736.276-1.176 0-.44-.092-.828-.276-1.164a1.93 1.93 0 00-.768-.792 2.15 2.15 0 00-1.092-.276c-.408 0-.776.092-1.104.276-.32.184-.576.448-.768.792a2.385 2.385 0 00-.276 1.164c0 .44.092.832.276 1.176.192.336.448.6.768.792.328.184.696.276 1.104.276zm7.736 1.008c-.648 0-1.228-.14-1.74-.42-.504-.28-.9-.664-1.188-1.152a3.284 3.284 0 01-.432-1.68c0-.624.144-1.18.432-1.668.288-.496.684-.88 1.188-1.152.512-.28 1.092-.42 1.74-.42.576 0 1.088.116 1.536.348a2.47 2.47 0 011.056 1.008l-.876.564a1.957 1.957 0 00-.744-.684 2.122 2.122 0 00-.984-.228 2.31 2.31 0 00-1.128.276 2.008 2.008 0 00-.78.792 2.385 2.385 0 00-.276 1.164c0 .448.092.844.276 1.188.192.336.452.596.78.78a2.31 2.31 0 001.128.276c.36 0 .688-.076.984-.228.296-.152.544-.38.744-.684l.876.552c-.248.44-.6.78-1.056 1.02-.448.232-.96.348-1.536.348zm8.741-5.424h-2.328V57h-1.152v-5.352h-2.328V50.64h5.808v1.008zm4.118 1.152c.808.008 1.424.192 1.848.552.424.36.636.868.636 1.524 0 .688-.232 1.22-.696 1.596-.456.368-1.112.548-1.968.54L511.62 57v-6.36h1.152v2.148l1.788.012zm-.276 3.336c.52.008.912-.096 1.176-.312.272-.216.408-.536.408-.96 0-.416-.132-.72-.396-.912-.256-.192-.652-.292-1.188-.3l-1.512-.024v2.496l1.512.012zm9.933-1.824h-1.32V57h-1.152v-6.36h1.152v2.688h1.344l2.064-2.688h1.236l-2.412 3.06 2.58 3.3h-1.356l-2.136-2.688zm-88.629 17h-1.32V74h-1.152v-6.36h1.152v2.688h1.344l2.064-2.688h1.236L436.5 70.7l2.58 3.3h-1.356l-2.136-2.688zm8.072-3.732c.616 0 1.168.136 1.656.408.488.272.868.652 1.14 1.14.28.488.42 1.052.42 1.692 0 .64-.14 1.208-.42 1.704a2.894 2.894 0 01-1.14 1.14 3.343 3.343 0 01-1.656.408c-.456 0-.876-.088-1.26-.264a2.621 2.621 0 01-.96-.768v3.288h-1.152V67.64h1.104v1.008c.256-.352.58-.616.972-.792a3.012 3.012 0 011.296-.276zm-.096 5.484a2.15 2.15 0 001.092-.276 2.03 2.03 0 00.768-.792c.192-.344.288-.736.288-1.176 0-.44-.096-.828-.288-1.164a1.93 1.93 0 00-.768-.792 2.15 2.15 0 00-1.092-.276c-.4 0-.764.096-1.092.288-.32.184-.576.444-.768.78a2.385 2.385 0 00-.276 1.164c0 .44.092.832.276 1.176.184.336.44.6.768.792.328.184.692.276 1.092.276zm10.486-5.424l-3.084 6.996c-.272.648-.592 1.104-.96 1.368-.36.264-.796.396-1.308.396-.312 0-.616-.052-.912-.156a1.807 1.807 0 01-.72-.432l.492-.864c.328.312.708.468 1.14.468.28 0 .512-.076.696-.228.192-.144.364-.396.516-.756l.204-.444-2.808-6.348h1.2l2.22 5.088 2.196-5.088h1.128zm5.954 1.008h-2.328V74h-1.152v-5.352h-2.328V67.64h5.808v1.008zm6.173-1.008V74h-1.032v-2.016h-1.98L461.773 74h-1.236l1.548-2.172c-.48-.144-.848-.38-1.104-.708-.256-.336-.384-.752-.384-1.248 0-.728.248-1.28.744-1.656.496-.384 1.18-.576 2.052-.576h2.784zm-4.404 2.268c0 .424.132.74.396.948.272.2.676.3 1.212.3h1.764v-2.508h-1.716c-1.104 0-1.656.42-1.656 1.26zm15.712-2.268V74h-9.06v-6.36h1.152v5.352h2.808V67.64h1.152v5.352h2.796V67.64h1.152zm.948 5.352v2.364h-1.08V74h-1.068v-1.008h2.148zm1.288-5.352h1.152v4.632l3.9-4.632h1.044V74h-1.152v-4.632L480.777 74h-1.056v-6.36zm15.665 0V74h-1.044v-4.644l-2.376 3.924h-.504l-2.352-3.936V74h-1.056v-6.36h1.188l2.496 4.296 2.568-4.296h1.08zm5.464 0h1.152v2.7h3.624v-2.7h1.152V74h-1.152v-2.664h-3.624V74h-1.152v-6.36zm10.436-.06c.88 0 1.552.216 2.016.648.472.432.708 1.076.708 1.932V74h-1.092v-.84a1.853 1.853 0 01-.828.684c-.352.152-.772.228-1.26.228-.712 0-1.284-.172-1.716-.516-.424-.344-.636-.796-.636-1.356s.204-1.008.612-1.344c.408-.344 1.056-.516 1.944-.516h1.824v-.228c0-.496-.144-.876-.432-1.14-.288-.264-.712-.396-1.272-.396-.376 0-.744.064-1.104.192a2.76 2.76 0 00-.912.492l-.48-.864c.328-.264.72-.464 1.176-.6.456-.144.94-.216 1.452-.216zm-.264 5.604c.44 0 .82-.096 1.14-.288.32-.2.552-.48.696-.84v-.888h-1.776c-.976 0-1.464.328-1.464.984 0 .32.124.572.372.756.248.184.592.276 1.032.276zm9.743-4.536h-3.528V74h-1.152v-6.36h4.68v1.008zm4.551-1.068c.616 0 1.168.136 1.656.408.488.272.868.652 1.14 1.14.28.488.42 1.052.42 1.692 0 .64-.14 1.208-.42 1.704a2.894 2.894 0 01-1.14 1.14 3.343 3.343 0 01-1.656.408c-.456 0-.876-.088-1.26-.264a2.621 2.621 0 01-.96-.768v3.288h-1.152V67.64h1.104v1.008c.256-.352.58-.616.972-.792a3.012 3.012 0 011.296-.276zm-.096 5.484a2.15 2.15 0 001.092-.276 2.03 2.03 0 00.768-.792c.192-.344.288-.736.288-1.176 0-.44-.096-.828-.288-1.164a1.93 1.93 0 00-.768-.792 2.15 2.15 0 00-1.092-.276c-.4 0-.764.096-1.092.288-.32.184-.576.444-.768.78a2.385 2.385 0 00-.276 1.164c0 .44.092.832.276 1.176.184.336.44.6.768.792.328.184.692.276 1.092.276zm10.486-5.424l-3.084 6.996c-.272.648-.592 1.104-.96 1.368-.36.264-.796.396-1.308.396-.312 0-.616-.052-.912-.156a1.807 1.807 0 01-.72-.432l.492-.864c.328.312.708.468 1.14.468.28 0 .512-.076.696-.228.192-.144.364-.396.516-.756l.204-.444-2.808-6.348h1.2l2.22 5.088 2.196-5.088h1.128zm4.471 3.048c.424.112.752.292.984.54a1.3 1.3 0 01.348.924c0 .376-.128.712-.384 1.008-.256.288-.612.516-1.068.684-.448.16-.952.24-1.512.24-.472 0-.936-.06-1.392-.18a4.322 4.322 0 01-1.2-.54l.348-.876c.304.192.652.344 1.044.456.392.104.788.156 1.188.156.544 0 .976-.092 1.296-.276.328-.192.492-.448.492-.768 0-.296-.132-.524-.396-.684-.256-.16-.62-.24-1.092-.24h-1.164v-.828h1.08c.432 0 .772-.076 1.02-.228.248-.152.372-.36.372-.624 0-.288-.148-.512-.444-.672-.288-.16-.68-.24-1.176-.24-.632 0-1.3.164-2.004.492l-.312-.888a5.335 5.335 0 012.436-.588c.512 0 .972.072 1.38.216.408.144.728.348.96.612.232.264.348.564.348.9 0 .312-.104.592-.312.84a1.928 1.928 0 01-.84.564zm5.556.624h-1.32V74h-1.152v-6.36h1.152v2.688h1.344l2.064-2.688h1.236l-2.412 3.06 2.58 3.3h-1.356l-2.136-2.688zm6.85-3.732c.88 0 1.552.216 2.016.648.472.432.708 1.076.708 1.932V74h-1.092v-.84a1.853 1.853 0 01-.828.684c-.352.152-.772.228-1.26.228-.712 0-1.284-.172-1.716-.516-.424-.344-.636-.796-.636-1.356s.204-1.008.612-1.344c.408-.344 1.056-.516 1.944-.516h1.824v-.228c0-.496-.144-.876-.432-1.14-.288-.264-.712-.396-1.272-.396-.376 0-.744.064-1.104.192a2.76 2.76 0 00-.912.492l-.48-.864c.328-.264.72-.464 1.176-.6.456-.144.94-.216 1.452-.216zm-.264 5.604c.44 0 .82-.096 1.14-.288.32-.2.552-.48.696-.84v-.888h-1.776c-.976 0-1.464.328-1.464.984 0 .32.124.572.372.756.248.184.592.276 1.032.276zm12.395-5.544V74h-1.044v-4.644l-2.376 3.924h-.504l-2.352-3.936V74h-1.056v-6.36h1.188l2.496 4.296 2.568-4.296h1.08z" fill="#fff"/><path d="M437.209 110.992c-.848 0-1.612-.184-2.292-.552a4.212 4.212 0 01-1.608-1.548 4.266 4.266 0 01-.576-2.196c0-.808.192-1.54.576-2.196a4.124 4.124 0 011.608-1.536c.68-.376 1.444-.564 2.292-.564.84 0 1.6.188 2.28.564a4.04 4.04 0 011.596 1.536c.384.648.576 1.38.576 2.196 0 .816-.192 1.552-.576 2.208a4.151 4.151 0 01-1.596 1.536c-.68.368-1.44.552-2.28.552zm0-1.068c.616 0 1.168-.14 1.656-.42.496-.28.884-.664 1.164-1.152a3.238 3.238 0 00.432-1.656c0-.608-.144-1.156-.432-1.644a3.014 3.014 0 00-1.164-1.164 3.267 3.267 0 00-1.656-.42 3.4 3.4 0 00-1.68.42 3.1 3.1 0 00-1.176 1.164 3.244 3.244 0 00-.42 1.644c0 .608.14 1.16.42 1.656.288.488.68.872 1.176 1.152a3.4 3.4 0 001.68.42zm12.092-5.388v6.36h-1.152v-5.352h-3.588v5.352h-1.152v-6.36h5.892zm7.977 3.216c0 .088-.008.204-.024.348h-5.16c.072.56.316 1.012.732 1.356.424.336.948.504 1.572.504.76 0 1.372-.256 1.836-.768l.636.744a2.777 2.777 0 01-1.08.768c-.424.176-.9.264-1.428.264-.672 0-1.268-.136-1.788-.408a3.033 3.033 0 01-1.212-1.164 3.357 3.357 0 01-.42-1.68c0-.616.136-1.172.408-1.668.28-.496.66-.88 1.14-1.152a3.244 3.244 0 011.644-.42c.608 0 1.148.14 1.62.42.48.272.852.656 1.116 1.152.272.496.408 1.064.408 1.704zm-3.144-2.304c-.552 0-1.016.168-1.392.504-.368.336-.584.776-.648 1.32h4.08c-.064-.536-.284-.972-.66-1.308-.368-.344-.828-.516-1.38-.516zm8.303-.972c.616 0 1.168.136 1.656.408.488.272.868.652 1.14 1.14.28.488.42 1.052.42 1.692 0 .64-.14 1.208-.42 1.704a2.894 2.894 0 01-1.14 1.14 3.343 3.343 0 01-1.656.408c-.456 0-.876-.088-1.26-.264a2.621 2.621 0 01-.96-.768v3.288h-1.152v-8.688h1.104v1.008c.256-.352.58-.616.972-.792a3.012 3.012 0 011.296-.276zm-.096 5.484a2.15 2.15 0 001.092-.276 2.03 2.03 0 00.768-.792c.192-.344.288-.736.288-1.176 0-.44-.096-.828-.288-1.164a1.93 1.93 0 00-.768-.792 2.15 2.15 0 00-1.092-.276c-.4 0-.764.096-1.092.288-.32.184-.576.444-.768.78a2.385 2.385 0 00-.276 1.164c0 .44.092.832.276 1.176.184.336.44.6.768.792.328.184.692.276 1.092.276zm7.195-5.484c.88 0 1.552.216 2.016.648.472.432.708 1.076.708 1.932v3.84h-1.092v-.84a1.853 1.853 0 01-.828.684c-.352.152-.772.228-1.26.228-.712 0-1.284-.172-1.716-.516-.424-.344-.636-.796-.636-1.356s.204-1.008.612-1.344c.408-.344 1.056-.516 1.944-.516h1.824v-.228c0-.496-.144-.876-.432-1.14-.288-.264-.712-.396-1.272-.396-.376 0-.744.064-1.104.192a2.76 2.76 0 00-.912.492l-.48-.864c.328-.264.72-.464 1.176-.6.456-.144.94-.216 1.452-.216zm-.264 5.604c.44 0 .82-.096 1.14-.288.32-.2.552-.48.696-.84v-.888h-1.776c-.976 0-1.464.328-1.464.984 0 .32.124.572.372.756.248.184.592.276 1.032.276zm11.855-.192v2.532h-1.092v-1.524h-5.7v-6.36h1.152v5.352h3.48v-5.352h1.152v5.352h1.008zm1.493-5.352h1.152v4.632l3.9-4.632h1.044v6.36h-1.152v-4.632l-3.888 4.632h-1.056v-6.36zm11.056 6.432c-.632 0-1.2-.14-1.704-.42-.504-.28-.9-.664-1.188-1.152a3.357 3.357 0 01-.42-1.68c0-.624.14-1.18.42-1.668.288-.496.684-.88 1.188-1.152a3.449 3.449 0 011.704-.42c.632 0 1.196.14 1.692.42.504.272.896.656 1.176 1.152.288.488.432 1.044.432 1.668 0 .624-.144 1.184-.432 1.68-.28.488-.672.872-1.176 1.152-.496.28-1.06.42-1.692.42zm0-1.008a2.15 2.15 0 001.092-.276 2.03 2.03 0 00.768-.792c.184-.344.276-.736.276-1.176 0-.44-.092-.828-.276-1.164a1.93 1.93 0 00-.768-.792 2.15 2.15 0 00-1.092-.276c-.408 0-.776.092-1.104.276-.32.184-.576.448-.768.792a2.385 2.385 0 00-.276 1.164c0 .44.092.832.276 1.176.192.336.448.6.768.792.328.184.696.276 1.104.276zm4.963-5.424h1.152v2.7h3.624v-2.7h1.152v6.36h-1.152v-2.664h-3.624v2.664h-1.152v-6.36zm8.168 0h1.152v2.7h3.624v-2.7h1.152v6.36h-1.152v-2.664h-3.624v2.664h-1.152v-6.36zm11.036 2.16c.8.008 1.412.192 1.836.552.424.36.636.868.636 1.524 0 .688-.232 1.22-.696 1.596-.456.368-1.112.548-1.968.54l-2.676-.012v-6.36h1.152v2.148l1.716.012zm3.42-2.16h1.152v6.36h-1.152v-6.36zm-3.696 5.496c.52.008.912-.096 1.176-.312.272-.216.408-.536.408-.96 0-.416-.132-.72-.396-.912-.264-.192-.66-.292-1.188-.3l-1.44-.024v2.496l1.44.012zm7.088-5.496h1.152v4.632l3.9-4.632h1.044v6.36h-1.152v-4.632l-3.888 4.632h-1.056v-6.36zm2.976-.828c-.592 0-1.052-.14-1.38-.42-.328-.288-.496-.7-.504-1.236h.78a.992.992 0 00.3.72c.2.176.464.264.792.264s.592-.088.792-.264a.97.97 0 00.312-.72h.804c-.008.536-.18.948-.516 1.236-.336.28-.796.42-1.38.42zm-87.062 17.828v6.36h-1.044v-4.644l-2.376 3.924h-.504l-2.352-3.936v4.656h-1.056v-6.36h1.188l2.496 4.296 2.568-4.296h1.08zm4.966 6.432c-.632 0-1.2-.14-1.704-.42-.504-.28-.9-.664-1.188-1.152a3.357 3.357 0 01-.42-1.68c0-.624.14-1.18.42-1.668.288-.496.684-.88 1.188-1.152a3.449 3.449 0 011.704-.42c.632 0 1.196.14 1.692.42.504.272.896.656 1.176 1.152.288.488.432 1.044.432 1.668 0 .624-.144 1.184-.432 1.68-.28.488-.672.872-1.176 1.152-.496.28-1.06.42-1.692.42zm0-1.008a2.15 2.15 0 001.092-.276 2.03 2.03 0 00.768-.792c.184-.344.276-.736.276-1.176 0-.44-.092-.828-.276-1.164a1.93 1.93 0 00-.768-.792 2.15 2.15 0 00-1.092-.276c-.408 0-.776.092-1.104.276-.32.184-.576.448-.768.792a2.385 2.385 0 00-.276 1.164c0 .44.092.832.276 1.176.192.336.448.6.768.792.328.184.696.276 1.104.276zm12.296-5.424v6.36h-1.044v-4.644l-2.376 3.924h-.504l-2.352-3.936v4.656h-1.056v-6.36h1.188l2.496 4.296 2.568-4.296h1.08zm7.99 3.216c0 .088-.008.204-.024.348h-5.16c.072.56.316 1.012.732 1.356.424.336.948.504 1.572.504.76 0 1.372-.256 1.836-.768l.636.744a2.777 2.777 0 01-1.08.768c-.424.176-.9.264-1.428.264-.672 0-1.268-.136-1.788-.408a3.033 3.033 0 01-1.212-1.164 3.357 3.357 0 01-.42-1.68c0-.616.136-1.172.408-1.668.28-.496.66-.88 1.14-1.152a3.244 3.244 0 011.644-.42c.608 0 1.148.14 1.62.42.48.272.852.656 1.116 1.152.272.496.408 1.064.408 1.704zm-3.144-2.304c-.552 0-1.016.168-1.392.504-.368.336-.584.776-.648 1.32h4.08c-.064-.536-.284-.972-.66-1.308-.368-.344-.828-.516-1.38-.516zm4.931-.912h1.152v2.7h3.624v-2.7h1.152v6.36h-1.152v-2.664h-3.624v2.664h-1.152v-6.36zm12.908 1.008h-2.328v5.352h-1.152v-5.352h-2.328v-1.008h5.808v1.008zm-44.507 22.424c-.648 0-1.228-.14-1.74-.42-.504-.28-.9-.664-1.188-1.152a3.284 3.284 0 01-.432-1.68c0-.624.144-1.18.432-1.668.288-.496.684-.88 1.188-1.152.512-.28 1.092-.42 1.74-.42.576 0 1.088.116 1.536.348a2.47 2.47 0 011.056 1.008l-.876.564a1.957 1.957 0 00-.744-.684 2.122 2.122 0 00-.984-.228 2.31 2.31 0 00-1.128.276 2.008 2.008 0 00-.78.792 2.385 2.385 0 00-.276 1.164c0 .448.092.844.276 1.188.192.336.452.596.78.78a2.31 2.31 0 001.128.276c.36 0 .688-.076.984-.228.296-.152.544-.38.744-.684l.876.552c-.248.44-.6.78-1.056 1.02-.448.232-.96.348-1.536.348zm6.714 0c-.632 0-1.2-.14-1.704-.42-.504-.28-.9-.664-1.188-1.152a3.357 3.357 0 01-.42-1.68c0-.624.14-1.18.42-1.668.288-.496.684-.88 1.188-1.152a3.449 3.449 0 011.704-.42c.632 0 1.196.14 1.692.42.504.272.896.656 1.176 1.152.288.488.432 1.044.432 1.668 0 .624-.144 1.184-.432 1.68-.28.488-.672.872-1.176 1.152-.496.28-1.06.42-1.692.42zm0-1.008a2.15 2.15 0 001.092-.276 2.03 2.03 0 00.768-.792c.184-.344.276-.736.276-1.176 0-.44-.092-.828-.276-1.164a1.93 1.93 0 00-.768-.792 2.15 2.15 0 00-1.092-.276c-.408 0-.776.092-1.104.276-.32.184-.576.448-.768.792a2.385 2.385 0 00-.276 1.164c0 .44.092.832.276 1.176.192.336.448.6.768.792.328.184.696.276 1.104.276zm10.711-2.208c0 .088-.008.204-.024.348h-5.16c.072.56.316 1.012.732 1.356.424.336.948.504 1.572.504.76 0 1.372-.256 1.836-.768l.636.744a2.777 2.777 0 01-1.08.768c-.424.176-.9.264-1.428.264-.672 0-1.268-.136-1.788-.408a3.033 3.033 0 01-1.212-1.164 3.357 3.357 0 01-.42-1.68c0-.616.136-1.172.408-1.668.28-.496.66-.88 1.14-1.152a3.244 3.244 0 011.644-.42c.608 0 1.148.14 1.62.42.48.272.852.656 1.116 1.152.272.496.408 1.064.408 1.704zm-3.144-2.304c-.552 0-1.016.168-1.392.504-.368.336-.584.776-.648 1.32h4.08c-.064-.536-.284-.972-.66-1.308-.368-.344-.828-.516-1.38-.516zm11.294 4.44v2.484h-1.08v-1.476h-5.316v1.476h-1.092v-2.484h.336c.408-.024.688-.312.84-.864.152-.552.256-1.332.312-2.34l.096-2.148h4.932v5.352h.972zm-4.944-3.12c-.032.8-.1 1.464-.204 1.992-.096.52-.276.896-.54 1.128h3.564v-4.344h-2.76l-.06 1.224zm6.445-2.232h1.152v4.632l3.9-4.632h1.044v6.36h-1.152v-4.632l-3.888 4.632h-1.056v-6.36zm8.332 0h1.152v2.7h3.624v-2.7h1.152v6.36h-1.152v-2.664h-3.624v2.664h-1.152v-6.36zm13.916 3.216c0 .088-.008.204-.024.348h-5.16c.072.56.316 1.012.732 1.356.424.336.948.504 1.572.504.76 0 1.372-.256 1.836-.768l.636.744a2.777 2.777 0 01-1.08.768c-.424.176-.9.264-1.428.264-.672 0-1.268-.136-1.788-.408a3.033 3.033 0 01-1.212-1.164 3.357 3.357 0 01-.42-1.68c0-.616.136-1.172.408-1.668.28-.496.66-.88 1.14-1.152a3.244 3.244 0 011.644-.42c.608 0 1.148.14 1.62.42.48.272.852.656 1.116 1.152.272.496.408 1.064.408 1.704zm-3.144-2.304c-.552 0-1.016.168-1.392.504-.368.336-.584.776-.648 1.32h4.08c-.064-.536-.284-.972-.66-1.308-.368-.344-.828-.516-1.38-.516zm4.931-.912h1.152v2.7h3.624v-2.7h1.152v6.36h-1.152v-2.664h-3.624v2.664h-1.152v-6.36zm8.168 0h1.152v4.632l3.9-4.632h1.044v6.36h-1.152v-4.632l-3.888 4.632h-1.056v-6.36zm13.432 0v6.36h-1.032v-2.016h-1.98l-1.392 2.016h-1.236l1.548-2.172c-.48-.144-.848-.38-1.104-.708-.256-.336-.384-.752-.384-1.248 0-.728.248-1.28.744-1.656.496-.384 1.18-.576 2.052-.576h2.784zm-4.404 2.268c0 .424.132.74.396.948.272.2.676.3 1.212.3h1.764v-2.508h-1.716c-1.104 0-1.656.42-1.656 1.26zm12.646 4.164c-.648 0-1.228-.14-1.74-.42-.504-.28-.9-.664-1.188-1.152a3.284 3.284 0 01-.432-1.68c0-.624.144-1.18.432-1.668.288-.496.684-.88 1.188-1.152.512-.28 1.092-.42 1.74-.42.576 0 1.088.116 1.536.348a2.47 2.47 0 011.056 1.008l-.876.564a1.957 1.957 0 00-.744-.684 2.122 2.122 0 00-.984-.228 2.31 2.31 0 00-1.128.276 2.008 2.008 0 00-.78.792 2.385 2.385 0 00-.276 1.164c0 .448.092.844.276 1.188.192.336.452.596.78.78a2.31 2.31 0 001.128.276c.36 0 .688-.076.984-.228.296-.152.544-.38.744-.684l.876.552c-.248.44-.6.78-1.056 1.02-.448.232-.96.348-1.536.348zm-81.253 14.24h-1.32v2.688h-1.152v-6.36h1.152v2.688h1.344l2.064-2.688h1.236l-2.412 3.06 2.58 3.3h-1.356l-2.136-2.688zm10.16-3.672v6.36h-1.152v-5.352h-2.736l-.072 1.416c-.04.856-.116 1.572-.228 2.148-.112.568-.296 1.024-.552 1.368-.256.344-.612.516-1.068.516-.208 0-.444-.036-.708-.108l.072-.972c.104.024.2.036.288.036.32 0 .56-.14.72-.42.16-.28.264-.612.312-.996.048-.384.092-.932.132-1.644l.108-2.352h4.884zm2.227 0h1.152v4.632l3.9-4.632h1.044v6.36h-1.152v-4.632l-3.888 4.632h-1.056v-6.36zm8.333 0h1.152v2.7h3.624v-2.7h1.152v6.36h-1.152v-2.664h-3.624v2.664h-1.152v-6.36zm10.891 6.432c-.632 0-1.2-.14-1.704-.42-.504-.28-.9-.664-1.188-1.152a3.357 3.357 0 01-.42-1.68c0-.624.14-1.18.42-1.668.288-.496.684-.88 1.188-1.152a3.449 3.449 0 011.704-.42c.632 0 1.196.14 1.692.42.504.272.896.656 1.176 1.152.288.488.432 1.044.432 1.668 0 .624-.144 1.184-.432 1.68-.28.488-.672.872-1.176 1.152-.496.28-1.06.42-1.692.42zm0-1.008a2.15 2.15 0 001.092-.276 2.03 2.03 0 00.768-.792c.184-.344.276-.736.276-1.176 0-.44-.092-.828-.276-1.164a1.93 1.93 0 00-.768-.792 2.15 2.15 0 00-1.092-.276c-.408 0-.776.092-1.104.276-.32.184-.576.448-.768.792a2.385 2.385 0 00-.276 1.164c0 .44.092.832.276 1.176.192.336.448.6.768.792.328.184.696.276 1.104.276zm9.296-2.364c.824.208 1.236.724 1.236 1.548 0 .56-.212.992-.636 1.296-.416.304-1.04.456-1.872.456h-3.06v-6.36h2.952c.752 0 1.34.144 1.764.432.424.28.636.68.636 1.2 0 .336-.092.628-.276.876-.176.24-.424.424-.744.552zm-3.204-.324h1.728c.44 0 .772-.08.996-.24.232-.16.348-.392.348-.696 0-.608-.448-.912-1.344-.912h-1.728v1.848zm1.848 2.736c.48 0 .84-.076 1.08-.228.24-.152.36-.388.36-.708 0-.328-.112-.572-.336-.732-.216-.16-.56-.24-1.032-.24h-1.92v1.908h1.848zm4.395-5.472h1.152v4.632l3.9-4.632h1.044v6.36h-1.152v-4.632l-3.888 4.632h-1.056v-6.36zm14.8 5.352v2.484h-1.08v-1.476h-5.316v1.476h-1.092v-2.484h.336c.408-.024.688-.312.84-.864.152-.552.256-1.332.312-2.34l.096-2.148h4.932v5.352h.972zm-4.944-3.12c-.032.8-.1 1.464-.204 1.992-.096.52-.276.896-.54 1.128h3.564v-4.344h-2.76l-.06 1.224zm6.445-2.232h1.152v2.7h3.624v-2.7h1.152v6.36h-1.152v-2.664h-3.624v2.664h-1.152v-6.36zm10.892 6.432c-.632 0-1.2-.14-1.704-.42-.504-.28-.9-.664-1.188-1.152a3.357 3.357 0 01-.42-1.68c0-.624.14-1.18.42-1.668.288-.496.684-.88 1.188-1.152a3.449 3.449 0 011.704-.42c.632 0 1.196.14 1.692.42.504.272.896.656 1.176 1.152.288.488.432 1.044.432 1.668 0 .624-.144 1.184-.432 1.68-.28.488-.672.872-1.176 1.152-.496.28-1.06.42-1.692.42zm0-1.008a2.15 2.15 0 001.092-.276 2.03 2.03 0 00.768-.792c.184-.344.276-.736.276-1.176 0-.44-.092-.828-.276-1.164a1.93 1.93 0 00-.768-.792 2.15 2.15 0 00-1.092-.276c-.408 0-.776.092-1.104.276-.32.184-.576.448-.768.792a2.385 2.385 0 00-.276 1.164c0 .44.092.832.276 1.176.192.336.448.6.768.792.328.184.696.276 1.104.276zm4.963-5.424h1.152v4.632l3.9-4.632h1.044v6.36h-1.152v-4.632l-3.888 4.632h-1.056v-6.36zm2.976-.828c-.592 0-1.052-.14-1.38-.42-.328-.288-.496-.7-.504-1.236h.78a.992.992 0 00.3.72c.2.176.464.264.792.264s.592-.088.792-.264a.97.97 0 00.312-.72h.804c-.008.536-.18.948-.516 1.236-.336.28-.796.42-1.38.42zm-78.178 17.768c.616 0 1.168.136 1.656.408.488.272.868.652 1.14 1.14.28.488.42 1.052.42 1.692 0 .64-.14 1.208-.42 1.704a2.894 2.894 0 01-1.14 1.14 3.343 3.343 0 01-1.656.408c-.456 0-.876-.088-1.26-.264a2.621 2.621 0 01-.96-.768v3.288h-1.152v-8.688h1.104v1.008c.256-.352.58-.616.972-.792a3.012 3.012 0 011.296-.276zm-.096 5.484a2.15 2.15 0 001.092-.276 2.03 2.03 0 00.768-.792c.192-.344.288-.736.288-1.176 0-.44-.096-.828-.288-1.164a1.93 1.93 0 00-.768-.792 2.15 2.15 0 00-1.092-.276c-.4 0-.764.096-1.092.288-.32.184-.576.444-.768.78a2.385 2.385 0 00-.276 1.164c0 .44.092.832.276 1.176.184.336.44.6.768.792.328.184.692.276 1.092.276zm10.734-2.208c0 .088-.008.204-.024.348h-5.16c.072.56.316 1.012.732 1.356.424.336.948.504 1.572.504.76 0 1.372-.256 1.836-.768l.636.744a2.777 2.777 0 01-1.08.768c-.424.176-.9.264-1.428.264-.672 0-1.268-.136-1.788-.408a3.033 3.033 0 01-1.212-1.164 3.357 3.357 0 01-.42-1.68c0-.616.136-1.172.408-1.668.28-.496.66-.88 1.14-1.152a3.244 3.244 0 011.644-.42c.608 0 1.148.14 1.62.42.48.272.852.656 1.116 1.152.272.496.408 1.064.408 1.704zm-3.144-2.304c-.552 0-1.016.168-1.392.504-.368.336-.584.776-.648 1.32h4.08c-.064-.536-.284-.972-.66-1.308-.368-.344-.828-.516-1.38-.516zm8.234 2.136c.424.112.752.292.984.54a1.3 1.3 0 01.348.924c0 .376-.128.712-.384 1.008-.256.288-.612.516-1.068.684-.448.16-.952.24-1.512.24-.472 0-.936-.06-1.392-.18a4.322 4.322 0 01-1.2-.54l.348-.876c.304.192.652.344 1.044.456.392.104.788.156 1.188.156.544 0 .976-.092 1.296-.276.328-.192.492-.448.492-.768 0-.296-.132-.524-.396-.684-.256-.16-.62-.24-1.092-.24h-1.164v-.828h1.08c.432 0 .772-.076 1.02-.228.248-.152.372-.36.372-.624 0-.288-.148-.512-.444-.672-.288-.16-.68-.24-1.176-.24-.632 0-1.3.164-2.004.492l-.312-.888a5.335 5.335 0 012.436-.588c.512 0 .972.072 1.38.216.408.144.728.348.96.612.232.264.348.564.348.9 0 .312-.104.592-.312.84a1.928 1.928 0 01-.84.564zm6.024-.888c.808.008 1.424.192 1.848.552.424.36.636.868.636 1.524 0 .688-.232 1.22-.696 1.596-.456.368-1.112.548-1.968.54l-2.76-.012v-6.36h1.152v2.148l1.788.012zm-.276 3.336c.52.008.912-.096 1.176-.312.272-.216.408-.536.408-.96 0-.416-.132-.72-.396-.912-.256-.192-.652-.292-1.188-.3l-1.512-.024v2.496l1.512.012zm7.478-5.28c.592 0 1.12.132 1.584.396.464.264.824.632 1.08 1.104.264.464.396.996.396 1.596 0 .616-.14 1.164-.42 1.644a2.82 2.82 0 01-1.164 1.104c-.496.264-1.064.396-1.704.396-1.08 0-1.916-.368-2.508-1.104-.584-.744-.876-1.788-.876-3.132 0-1.304.268-2.324.804-3.06.536-.744 1.356-1.236 2.46-1.476l2.904-.648.168 1.056-2.676.576c-.832.184-1.452.496-1.86.936-.408.44-.64 1.072-.696 1.896a2.799 2.799 0 011.056-.948 3.107 3.107 0 011.452-.336zm-.204 5.28c.408 0 .768-.092 1.08-.276a1.93 1.93 0 00.744-.756c.176-.328.264-.7.264-1.116 0-.632-.192-1.14-.576-1.524-.384-.384-.888-.576-1.512-.576s-1.132.192-1.524.576c-.384.384-.576.892-.576 1.524 0 .416.088.788.264 1.116.184.32.436.572.756.756.32.184.68.276 1.08.276zm7.633.936c-.632 0-1.2-.14-1.704-.42-.504-.28-.9-.664-1.188-1.152a3.357 3.357 0 01-.42-1.68c0-.624.14-1.18.42-1.668.288-.496.684-.88 1.188-1.152a3.449 3.449 0 011.704-.42c.632 0 1.196.14 1.692.42.504.272.896.656 1.176 1.152.288.488.432 1.044.432 1.668 0 .624-.144 1.184-.432 1.68-.28.488-.672.872-1.176 1.152-.496.28-1.06.42-1.692.42zm0-1.008a2.15 2.15 0 001.092-.276 2.03 2.03 0 00.768-.792c.184-.344.276-.736.276-1.176 0-.44-.092-.828-.276-1.164a1.93 1.93 0 00-.768-.792 2.15 2.15 0 00-1.092-.276c-.408 0-.776.092-1.104.276-.32.184-.576.448-.768.792a2.385 2.385 0 00-.276 1.164c0 .44.092.832.276 1.176.192.336.448.6.768.792.328.184.696.276 1.104.276zm4.964-5.424h1.152v4.632l3.9-4.632h1.044v6.36H482.9v-4.632l-3.888 4.632h-1.056v-6.36zm2.976-.828c-.592 0-1.052-.14-1.38-.42-.328-.288-.496-.7-.504-1.236h.78a.992.992 0 00.3.72c.2.176.464.264.792.264s.592-.088.792-.264a.97.97 0 00.312-.72h.804c-.008.536-.18.948-.516 1.236-.336.28-.796.42-1.38.42zm-43.844 185.388c-.848 0-1.612-.184-2.292-.552a4.212 4.212 0 01-1.608-1.548 4.266 4.266 0 01-.576-2.196c0-.808.192-1.54.576-2.196a4.124 4.124 0 011.608-1.536c.68-.376 1.444-.564 2.292-.564.84 0 1.6.188 2.28.564a4.04 4.04 0 011.596 1.536c.384.648.576 1.38.576 2.196 0 .816-.192 1.552-.576 2.208a4.151 4.151 0 01-1.596 1.536c-.68.368-1.44.552-2.28.552zm0-1.068c.616 0 1.168-.14 1.656-.42.496-.28.884-.664 1.164-1.152a3.238 3.238 0 00.432-1.656c0-.608-.144-1.156-.432-1.644a3.014 3.014 0 00-1.164-1.164 3.267 3.267 0 00-1.656-.42 3.4 3.4 0 00-1.68.42 3.1 3.1 0 00-1.176 1.164 3.244 3.244 0 00-.42 1.644c0 .608.14 1.16.42 1.656.288.488.68.872 1.176 1.152a3.4 3.4 0 001.68.42zm12.092-5.388V357h-1.152v-5.352h-3.588V357h-1.152v-6.36h5.892zm7.977 3.216c0 .088-.008.204-.024.348h-5.16c.072.56.316 1.012.732 1.356.424.336.948.504 1.572.504.76 0 1.372-.256 1.836-.768l.636.744a2.777 2.777 0 01-1.08.768c-.424.176-.9.264-1.428.264-.672 0-1.268-.136-1.788-.408a3.033 3.033 0 01-1.212-1.164 3.357 3.357 0 01-.42-1.68c0-.616.136-1.172.408-1.668.28-.496.66-.88 1.14-1.152a3.244 3.244 0 011.644-.42c.608 0 1.148.14 1.62.42.48.272.852.656 1.116 1.152.272.496.408 1.064.408 1.704zm-3.144-2.304c-.552 0-1.016.168-1.392.504-.368.336-.584.776-.648 1.32h4.08c-.064-.536-.284-.972-.66-1.308-.368-.344-.828-.516-1.38-.516zm8.303-.972c.616 0 1.168.136 1.656.408.488.272.868.652 1.14 1.14.28.488.42 1.052.42 1.692 0 .64-.14 1.208-.42 1.704a2.894 2.894 0 01-1.14 1.14 3.343 3.343 0 01-1.656.408c-.456 0-.876-.088-1.26-.264a2.621 2.621 0 01-.96-.768v3.288h-1.152v-8.688h1.104v1.008c.256-.352.58-.616.972-.792a3.012 3.012 0 011.296-.276zm-.096 5.484a2.15 2.15 0 001.092-.276 2.03 2.03 0 00.768-.792c.192-.344.288-.736.288-1.176 0-.44-.096-.828-.288-1.164a1.93 1.93 0 00-.768-.792 2.15 2.15 0 00-1.092-.276c-.4 0-.764.096-1.092.288-.32.184-.576.444-.768.78a2.385 2.385 0 00-.276 1.164c0 .44.092.832.276 1.176.184.336.44.6.768.792.328.184.692.276 1.092.276zm7.195-5.484c.88 0 1.552.216 2.016.648.472.432.708 1.076.708 1.932V357h-1.092v-.84a1.853 1.853 0 01-.828.684c-.352.152-.772.228-1.26.228-.712 0-1.284-.172-1.716-.516-.424-.344-.636-.796-.636-1.356s.204-1.008.612-1.344c.408-.344 1.056-.516 1.944-.516h1.824v-.228c0-.496-.144-.876-.432-1.14-.288-.264-.712-.396-1.272-.396-.376 0-.744.064-1.104.192a2.76 2.76 0 00-.912.492l-.48-.864c.328-.264.72-.464 1.176-.6.456-.144.94-.216 1.452-.216zm-.264 5.604c.44 0 .82-.096 1.14-.288.32-.2.552-.48.696-.84v-.888h-1.776c-.976 0-1.464.328-1.464.984 0 .32.124.572.372.756.248.184.592.276 1.032.276zm11.855-.192v2.532h-1.092V357h-5.7v-6.36h1.152v5.352h3.48v-5.352h1.152v5.352h1.008zm1.493-5.352h1.152v4.632l3.9-4.632h1.044V357h-1.152v-4.632L483.555 357h-1.056v-6.36zm11.056 6.432c-.632 0-1.2-.14-1.704-.42-.504-.28-.9-.664-1.188-1.152a3.357 3.357 0 01-.42-1.68c0-.624.14-1.18.42-1.668.288-.496.684-.88 1.188-1.152a3.449 3.449 0 011.704-.42c.632 0 1.196.14 1.692.42.504.272.896.656 1.176 1.152.288.488.432 1.044.432 1.668 0 .624-.144 1.184-.432 1.68-.28.488-.672.872-1.176 1.152-.496.28-1.06.42-1.692.42zm0-1.008a2.15 2.15 0 001.092-.276 2.03 2.03 0 00.768-.792c.184-.344.276-.736.276-1.176 0-.44-.092-.828-.276-1.164a1.93 1.93 0 00-.768-.792 2.15 2.15 0 00-1.092-.276c-.408 0-.776.092-1.104.276-.32.184-.576.448-.768.792a2.385 2.385 0 00-.276 1.164c0 .44.092.832.276 1.176.192.336.448.6.768.792.328.184.696.276 1.104.276zm4.963-5.424h1.152v2.7h3.624v-2.7h1.152V357h-1.152v-2.664h-3.624V357h-1.152v-6.36zm8.168 0h1.152v2.7h3.624v-2.7h1.152V357h-1.152v-2.664h-3.624V357h-1.152v-6.36zm11.036 2.16c.8.008 1.412.192 1.836.552.424.36.636.868.636 1.524 0 .688-.232 1.22-.696 1.596-.456.368-1.112.548-1.968.54l-2.676-.012v-6.36h1.152v2.148l1.716.012zm3.42-2.16h1.152V357h-1.152v-6.36zm-3.696 5.496c.52.008.912-.096 1.176-.312.272-.216.408-.536.408-.96 0-.416-.132-.72-.396-.912-.264-.192-.66-.292-1.188-.3l-1.44-.024v2.496l1.44.012zm7.088-5.496h1.152v4.632l3.9-4.632h1.044V357h-1.152v-4.632L525.59 357h-1.056v-6.36zm2.976-.828c-.592 0-1.052-.14-1.38-.42-.328-.288-.496-.7-.504-1.236h.78a.992.992 0 00.3.72c.2.176.464.264.792.264s.592-.088.792-.264a.97.97 0 00.312-.72h.804c-.008.536-.18.948-.516 1.236-.336.28-.796.42-1.38.42zm-87.062 17.828V374h-1.044v-4.644l-2.376 3.924h-.504l-2.352-3.936V374h-1.056v-6.36h1.188l2.496 4.296 2.568-4.296h1.08zm4.966 6.432c-.632 0-1.2-.14-1.704-.42-.504-.28-.9-.664-1.188-1.152a3.357 3.357 0 01-.42-1.68c0-.624.14-1.18.42-1.668.288-.496.684-.88 1.188-1.152a3.449 3.449 0 011.704-.42c.632 0 1.196.14 1.692.42.504.272.896.656 1.176 1.152.288.488.432 1.044.432 1.668 0 .624-.144 1.184-.432 1.68-.28.488-.672.872-1.176 1.152-.496.28-1.06.42-1.692.42zm0-1.008a2.15 2.15 0 001.092-.276 2.03 2.03 0 00.768-.792c.184-.344.276-.736.276-1.176 0-.44-.092-.828-.276-1.164a1.93 1.93 0 00-.768-.792 2.15 2.15 0 00-1.092-.276c-.408 0-.776.092-1.104.276-.32.184-.576.448-.768.792a2.385 2.385 0 00-.276 1.164c0 .44.092.832.276 1.176.192.336.448.6.768.792.328.184.696.276 1.104.276zm12.296-5.424V374h-1.044v-4.644l-2.376 3.924h-.504l-2.352-3.936V374h-1.056v-6.36h1.188l2.496 4.296 2.568-4.296h1.08zm7.99 3.216c0 .088-.008.204-.024.348h-5.16c.072.56.316 1.012.732 1.356.424.336.948.504 1.572.504.76 0 1.372-.256 1.836-.768l.636.744a2.777 2.777 0 01-1.08.768c-.424.176-.9.264-1.428.264-.672 0-1.268-.136-1.788-.408a3.033 3.033 0 01-1.212-1.164 3.357 3.357 0 01-.42-1.68c0-.616.136-1.172.408-1.668.28-.496.66-.88 1.14-1.152a3.244 3.244 0 011.644-.42c.608 0 1.148.14 1.62.42.48.272.852.656 1.116 1.152.272.496.408 1.064.408 1.704zm-3.144-2.304c-.552 0-1.016.168-1.392.504-.368.336-.584.776-.648 1.32h4.08c-.064-.536-.284-.972-.66-1.308-.368-.344-.828-.516-1.38-.516zm4.931-.912h1.152v2.7h3.624v-2.7h1.152V374h-1.152v-2.664h-3.624V374h-1.152v-6.36zm12.908 1.008h-2.328V374h-1.152v-5.352h-2.328v-1.008h5.808v1.008zm-44.807 19.664h-1.32V391h-1.152v-6.36h1.152v2.688h1.344l2.064-2.688h1.236l-2.412 3.06 2.58 3.3h-1.356l-2.136-2.688zm10.16-3.672V391h-1.152v-5.352h-2.736l-.072 1.416c-.04.856-.116 1.572-.228 2.148-.112.568-.296 1.024-.552 1.368-.256.344-.612.516-1.068.516-.208 0-.444-.036-.708-.108l.072-.972c.104.024.2.036.288.036.32 0 .56-.14.72-.42.16-.28.264-.612.312-.996.048-.384.092-.932.132-1.644l.108-2.352h4.884zm4.495-.06c.88 0 1.552.216 2.016.648.472.432.708 1.076.708 1.932V391h-1.092v-.84a1.853 1.853 0 01-.828.684c-.352.152-.772.228-1.26.228-.712 0-1.284-.172-1.716-.516-.424-.344-.636-.796-.636-1.356s.204-1.008.612-1.344c.408-.344 1.056-.516 1.944-.516h1.824v-.228c0-.496-.144-.876-.432-1.14-.288-.264-.712-.396-1.272-.396-.376 0-.744.064-1.104.192a2.76 2.76 0 00-.912.492l-.48-.864c.328-.264.72-.464 1.176-.6.456-.144.94-.216 1.452-.216zm-.264 5.604c.44 0 .82-.096 1.14-.288.32-.2.552-.48.696-.84v-.888h-1.776c-.976 0-1.464.328-1.464.984 0 .32.124.572.372.756.248.184.592.276 1.032.276zm7.835.888c-.648 0-1.228-.14-1.74-.42-.504-.28-.9-.664-1.188-1.152a3.284 3.284 0 01-.432-1.68c0-.624.144-1.18.432-1.668.288-.496.684-.88 1.188-1.152.512-.28 1.092-.42 1.74-.42.576 0 1.088.116 1.536.348a2.47 2.47 0 011.056 1.008l-.876.564a1.957 1.957 0 00-.744-.684 2.122 2.122 0 00-.984-.228 2.31 2.31 0 00-1.128.276 2.008 2.008 0 00-.78.792 2.385 2.385 0 00-.276 1.164c0 .448.092.844.276 1.188.192.336.452.596.78.78a2.31 2.31 0 001.128.276c.36 0 .688-.076.984-.228.296-.152.544-.38.744-.684l.876.552c-.248.44-.6.78-1.056 1.02-.448.232-.96.348-1.536.348zm6.762 0c-.648 0-1.228-.14-1.74-.42-.504-.28-.9-.664-1.188-1.152a3.284 3.284 0 01-.432-1.68c0-.624.144-1.18.432-1.668.288-.496.684-.88 1.188-1.152.512-.28 1.092-.42 1.74-.42.576 0 1.088.116 1.536.348a2.47 2.47 0 011.056 1.008l-.876.564a1.957 1.957 0 00-.744-.684 2.122 2.122 0 00-.984-.228 2.31 2.31 0 00-1.128.276 2.008 2.008 0 00-.78.792 2.385 2.385 0 00-.276 1.164c0 .448.092.844.276 1.188.192.336.452.596.78.78a2.31 2.31 0 001.128.276c.36 0 .688-.076.984-.228.296-.152.544-.38.744-.684l.876.552c-.248.44-.6.78-1.056 1.02-.448.232-.96.348-1.536.348zm4.083-6.432h1.152v4.632l3.9-4.632h1.044V391h-1.152v-4.632L469.715 391h-1.056v-6.36zm13.408 0V391h-1.152v-2.568c-.688.32-1.372.48-2.052.48-.792 0-1.404-.184-1.836-.552-.432-.368-.648-.92-.648-1.656v-2.064h1.152v1.992c0 .44.136.772.408.996.28.224.668.336 1.164.336.56 0 1.164-.14 1.812-.42v-2.904h1.152zm7.985 3.216c0 .088-.008.204-.024.348h-5.16c.072.56.316 1.012.732 1.356.424.336.948.504 1.572.504.76 0 1.372-.256 1.836-.768l.636.744a2.777 2.777 0 01-1.08.768c-.424.176-.9.264-1.428.264-.672 0-1.268-.136-1.788-.408a3.033 3.033 0 01-1.212-1.164 3.357 3.357 0 01-.42-1.68c0-.616.136-1.172.408-1.668.28-.496.66-.88 1.14-1.152a3.244 3.244 0 011.644-.42c.608 0 1.148.14 1.62.42.48.272.852.656 1.116 1.152.272.496.408 1.064.408 1.704zm-3.144-2.304c-.552 0-1.016.168-1.392.504-.368.336-.584.776-.648 1.32h4.08c-.064-.536-.284-.972-.66-1.308-.368-.344-.828-.516-1.38-.516zm7.703 5.52c-.648 0-1.228-.14-1.74-.42-.504-.28-.9-.664-1.188-1.152a3.284 3.284 0 01-.432-1.68c0-.624.144-1.18.432-1.668.288-.496.684-.88 1.188-1.152.512-.28 1.092-.42 1.74-.42.576 0 1.088.116 1.536.348a2.47 2.47 0 011.056 1.008l-.876.564a1.957 1.957 0 00-.744-.684 2.122 2.122 0 00-.984-.228 2.31 2.31 0 00-1.128.276 2.008 2.008 0 00-.78.792 2.385 2.385 0 00-.276 1.164c0 .448.092.844.276 1.188.192.336.452.596.78.78a2.31 2.31 0 001.128.276c.36 0 .688-.076.984-.228.296-.152.544-.38.744-.684l.876.552c-.248.44-.6.78-1.056 1.02-.448.232-.96.348-1.536.348zm6.555-2.76h-1.32V391h-1.152v-6.36h1.152v2.688h1.344l2.064-2.688h1.236l-2.412 3.06 2.58 3.3h-1.356l-2.136-2.688zm7.213 2.76c-.632 0-1.2-.14-1.704-.42-.504-.28-.9-.664-1.188-1.152a3.357 3.357 0 01-.42-1.68c0-.624.14-1.18.42-1.668.288-.496.684-.88 1.188-1.152a3.449 3.449 0 011.704-.42c.632 0 1.196.14 1.692.42.504.272.896.656 1.176 1.152.288.488.432 1.044.432 1.668 0 .624-.144 1.184-.432 1.68-.28.488-.672.872-1.176 1.152-.496.28-1.06.42-1.692.42zm0-1.008a2.15 2.15 0 001.092-.276 2.03 2.03 0 00.768-.792c.184-.344.276-.736.276-1.176 0-.44-.092-.828-.276-1.164a1.93 1.93 0 00-.768-.792 2.15 2.15 0 00-1.092-.276c-.408 0-.776.092-1.104.276-.32.184-.576.448-.768.792a2.385 2.385 0 00-.276 1.164c0 .44.092.832.276 1.176.192.336.448.6.768.792.328.184.696.276 1.104.276zm9.644-4.416h-3.528V391h-1.152v-6.36h4.68v1.008zm3.622 5.424c-.632 0-1.2-.14-1.704-.42-.504-.28-.9-.664-1.188-1.152a3.357 3.357 0 01-.42-1.68c0-.624.14-1.18.42-1.668.288-.496.684-.88 1.188-1.152a3.449 3.449 0 011.704-.42c.632 0 1.196.14 1.692.42.504.272.896.656 1.176 1.152.288.488.432 1.044.432 1.668 0 .624-.144 1.184-.432 1.68-.28.488-.672.872-1.176 1.152-.496.28-1.06.42-1.692.42zm0-1.008a2.15 2.15 0 001.092-.276 2.03 2.03 0 00.768-.792c.184-.344.276-.736.276-1.176 0-.44-.092-.828-.276-1.164a1.93 1.93 0 00-.768-.792 2.15 2.15 0 00-1.092-.276c-.408 0-.776.092-1.104.276-.32.184-.576.448-.768.792a2.385 2.385 0 00-.276 1.164c0 .44.092.832.276 1.176.192.336.448.6.768.792.328.184.696.276 1.104.276zm-85.757 18.008c-.648 0-1.228-.14-1.74-.42-.504-.28-.9-.664-1.188-1.152a3.284 3.284 0 01-.432-1.68c0-.624.144-1.18.432-1.668.288-.496.684-.88 1.188-1.152.512-.28 1.092-.42 1.74-.42.576 0 1.088.116 1.536.348a2.47 2.47 0 011.056 1.008l-.876.564a1.957 1.957 0 00-.744-.684 2.122 2.122 0 00-.984-.228 2.31 2.31 0 00-1.128.276 2.008 2.008 0 00-.78.792 2.385 2.385 0 00-.276 1.164c0 .448.092.844.276 1.188.192.336.452.596.78.78a2.31 2.31 0 001.128.276c.36 0 .688-.076.984-.228.296-.152.544-.38.744-.684l.876.552c-.248.44-.6.78-1.056 1.02-.448.232-.96.348-1.536.348zm6.714 0c-.632 0-1.2-.14-1.704-.42-.504-.28-.9-.664-1.188-1.152a3.357 3.357 0 01-.42-1.68c0-.624.14-1.18.42-1.668.288-.496.684-.88 1.188-1.152a3.449 3.449 0 011.704-.42c.632 0 1.196.14 1.692.42.504.272.896.656 1.176 1.152.288.488.432 1.044.432 1.668 0 .624-.144 1.184-.432 1.68-.28.488-.672.872-1.176 1.152-.496.28-1.06.42-1.692.42zm0-1.008a2.15 2.15 0 001.092-.276 2.03 2.03 0 00.768-.792c.184-.344.276-.736.276-1.176 0-.44-.092-.828-.276-1.164a1.93 1.93 0 00-.768-.792 2.15 2.15 0 00-1.092-.276c-.408 0-.776.092-1.104.276-.32.184-.576.448-.768.792a2.385 2.385 0 00-.276 1.164c0 .44.092.832.276 1.176.192.336.448.6.768.792.328.184.696.276 1.104.276zm10.711-2.208c0 .088-.008.204-.024.348h-5.16c.072.56.316 1.012.732 1.356.424.336.948.504 1.572.504.76 0 1.372-.256 1.836-.768l.636.744a2.777 2.777 0 01-1.08.768c-.424.176-.9.264-1.428.264-.672 0-1.268-.136-1.788-.408a3.033 3.033 0 01-1.212-1.164 3.357 3.357 0 01-.42-1.68c0-.616.136-1.172.408-1.668.28-.496.66-.88 1.14-1.152a3.244 3.244 0 011.644-.42c.608 0 1.148.14 1.62.42.48.272.852.656 1.116 1.152.272.496.408 1.064.408 1.704zm-3.144-2.304c-.552 0-1.016.168-1.392.504-.368.336-.584.776-.648 1.32h4.08c-.064-.536-.284-.972-.66-1.308-.368-.344-.828-.516-1.38-.516zm11.294 4.44v2.484h-1.08V408h-5.316v1.476h-1.092v-2.484h.336c.408-.024.688-.312.84-.864.152-.552.256-1.332.312-2.34l.096-2.148h4.932v5.352h.972zm-4.944-3.12c-.032.8-.1 1.464-.204 1.992-.096.52-.276.896-.54 1.128h3.564v-4.344h-2.76l-.06 1.224zm6.445-2.232h1.152v4.632l3.9-4.632h1.044V408h-1.152v-4.632L464.02 408h-1.056v-6.36zm8.332 0h1.152v2.7h3.624v-2.7h1.152V408h-1.152v-2.664h-3.624V408h-1.152v-6.36zm13.916 3.216c0 .088-.008.204-.024.348h-5.16c.072.56.316 1.012.732 1.356.424.336.948.504 1.572.504.76 0 1.372-.256 1.836-.768l.636.744a2.777 2.777 0 01-1.08.768c-.424.176-.9.264-1.428.264-.672 0-1.268-.136-1.788-.408a3.033 3.033 0 01-1.212-1.164 3.357 3.357 0 01-.42-1.68c0-.616.136-1.172.408-1.668.28-.496.66-.88 1.14-1.152a3.244 3.244 0 011.644-.42c.608 0 1.148.14 1.62.42.48.272.852.656 1.116 1.152.272.496.408 1.064.408 1.704zm-3.144-2.304c-.552 0-1.016.168-1.392.504-.368.336-.584.776-.648 1.32h4.08c-.064-.536-.284-.972-.66-1.308-.368-.344-.828-.516-1.38-.516zm4.931-.912h1.152v2.7h3.624v-2.7h1.152V408h-1.152v-2.664h-3.624V408h-1.152v-6.36zm8.168 0h1.152v4.632l3.9-4.632h1.044V408h-1.152v-4.632L496.223 408h-1.056v-6.36zm13.432 0V408h-1.032v-2.016h-1.98L504.195 408h-1.236l1.548-2.172c-.48-.144-.848-.38-1.104-.708-.256-.336-.384-.752-.384-1.248 0-.728.248-1.28.744-1.656.496-.384 1.18-.576 2.052-.576h2.784zm-4.404 2.268c0 .424.132.74.396.948.272.2.676.3 1.212.3h1.764v-2.508h-1.716c-1.104 0-1.656.42-1.656 1.26zm-69.627 23.42c-.456-.736-.808-1.58-1.056-2.532a12.295 12.295 0 01-.372-3.084c0-1.096.124-2.124.372-3.084.248-.968.6-1.812 1.056-2.532h1.092c-.48.84-.832 1.72-1.056 2.64-.224.92-.336 1.912-.336 2.976s.112 2.056.336 2.976c.224.92.576 1.8 1.056 2.64h-1.092zm8.267-8.688l-3.084 6.996c-.272.648-.592 1.104-.96 1.368-.36.264-.796.396-1.308.396-.312 0-.616-.052-.912-.156a1.807 1.807 0 01-.72-.432l.492-.864c.328.312.708.468 1.14.468.28 0 .512-.076.696-.228.192-.144.364-.396.516-.756l.204-.444-2.808-6.348h1.2l2.22 5.088 2.196-5.088h1.128zm7.071 0V425h-1.152v-5.352h-3.588V425h-1.152v-6.36h5.892zm4.954 6.432c-.632 0-1.2-.14-1.704-.42-.504-.28-.9-.664-1.188-1.152a3.357 3.357 0 01-.42-1.68c0-.624.14-1.18.42-1.668.288-.496.684-.88 1.188-1.152a3.449 3.449 0 011.704-.42c.632 0 1.196.14 1.692.42.504.272.896.656 1.176 1.152.288.488.432 1.044.432 1.668 0 .624-.144 1.184-.432 1.68-.28.488-.672.872-1.176 1.152-.496.28-1.06.42-1.692.42zm0-1.008a2.15 2.15 0 001.092-.276 2.03 2.03 0 00.768-.792c.184-.344.276-.736.276-1.176 0-.44-.092-.828-.276-1.164a1.93 1.93 0 00-.768-.792 2.15 2.15 0 00-1.092-.276c-.408 0-.776.092-1.104.276-.32.184-.576.448-.768.792a2.385 2.385 0 00-.276 1.164c0 .44.092.832.276 1.176.192.336.448.6.768.792.328.184.696.276 1.104.276zm8.335-5.484c.616 0 1.168.136 1.656.408.488.272.868.652 1.14 1.14.28.488.42 1.052.42 1.692 0 .64-.14 1.208-.42 1.704a2.894 2.894 0 01-1.14 1.14 3.343 3.343 0 01-1.656.408c-.456 0-.876-.088-1.26-.264a2.621 2.621 0 01-.96-.768v3.288h-1.152v-8.688h1.104v1.008c.256-.352.58-.616.972-.792a3.012 3.012 0 011.296-.276zm-.096 5.484a2.15 2.15 0 001.092-.276 2.03 2.03 0 00.768-.792c.192-.344.288-.736.288-1.176 0-.44-.096-.828-.288-1.164a1.93 1.93 0 00-.768-.792 2.15 2.15 0 00-1.092-.276c-.4 0-.764.096-1.092.288-.32.184-.576.444-.768.78a2.385 2.385 0 00-.276 1.164c0 .44.092.832.276 1.176.184.336.44.6.768.792.328.184.692.276 1.092.276zm4.986-5.424h1.152v2.7h3.624v-2.7h1.152V425h-1.152v-2.664h-3.624V425h-1.152v-6.36zm10.892 6.432c-.632 0-1.2-.14-1.704-.42-.504-.28-.9-.664-1.188-1.152a3.357 3.357 0 01-.42-1.68c0-.624.14-1.18.42-1.668.288-.496.684-.88 1.188-1.152a3.449 3.449 0 011.704-.42c.632 0 1.196.14 1.692.42.504.272.896.656 1.176 1.152.288.488.432 1.044.432 1.668 0 .624-.144 1.184-.432 1.68-.28.488-.672.872-1.176 1.152-.496.28-1.06.42-1.692.42zm0-1.008a2.15 2.15 0 001.092-.276 2.03 2.03 0 00.768-.792c.184-.344.276-.736.276-1.176 0-.44-.092-.828-.276-1.164a1.93 1.93 0 00-.768-.792 2.15 2.15 0 00-1.092-.276c-.408 0-.776.092-1.104.276-.32.184-.576.448-.768.792a2.385 2.385 0 00-.276 1.164c0 .44.092.832.276 1.176.192.336.448.6.768.792.328.184.696.276 1.104.276zm9.643-4.416h-3.528V425h-1.152v-6.36h4.68v1.008zm3.622 5.424c-.632 0-1.2-.14-1.704-.42-.504-.28-.9-.664-1.188-1.152a3.357 3.357 0 01-.42-1.68c0-.624.14-1.18.42-1.668.288-.496.684-.88 1.188-1.152a3.449 3.449 0 011.704-.42c.632 0 1.196.14 1.692.42.504.272.896.656 1.176 1.152.288.488.432 1.044.432 1.668 0 .624-.144 1.184-.432 1.68-.28.488-.672.872-1.176 1.152-.496.28-1.06.42-1.692.42zm0-1.008a2.15 2.15 0 001.092-.276 2.03 2.03 0 00.768-.792c.184-.344.276-.736.276-1.176 0-.44-.092-.828-.276-1.164a1.93 1.93 0 00-.768-.792 2.15 2.15 0 00-1.092-.276c-.408 0-.776.092-1.104.276-.32.184-.576.448-.768.792a2.385 2.385 0 00-.276 1.164c0 .44.092.832.276 1.176.192.336.448.6.768.792.328.184.696.276 1.104.276zm4.232 3.264c.48-.84.832-1.72 1.056-2.64.232-.92.348-1.912.348-2.976s-.116-2.056-.348-2.976c-.224-.92-.576-1.8-1.056-2.64h1.092c.464.72.82 1.56 1.068 2.52.248.96.372 1.992.372 3.096 0 1.096-.124 2.124-.372 3.084s-.604 1.804-1.068 2.532h-1.092zM367.088 612.096c-.848 0-1.612-.184-2.292-.552a4.212 4.212 0 01-1.608-1.548 4.266 4.266 0 01-.576-2.196c0-.808.192-1.54.576-2.196a4.124 4.124 0 011.608-1.536c.68-.376 1.444-.564 2.292-.564.84 0 1.6.188 2.28.564a4.04 4.04 0 011.596 1.536c.384.648.576 1.38.576 2.196 0 .816-.192 1.552-.576 2.208a4.151 4.151 0 01-1.596 1.536c-.68.368-1.44.552-2.28.552zm0-1.068c.616 0 1.168-.14 1.656-.42.496-.28.884-.664 1.164-1.152a3.238 3.238 0 00.432-1.656c0-.608-.144-1.156-.432-1.644a3.014 3.014 0 00-1.164-1.164 3.267 3.267 0 00-1.656-.42 3.4 3.4 0 00-1.68.42 3.1 3.1 0 00-1.176 1.164 3.244 3.244 0 00-.42 1.644c0 .608.14 1.16.42 1.656.288.488.68.872 1.176 1.152a3.4 3.4 0 001.68.42zm9.44-5.172c.592 0 1.12.132 1.584.396.464.264.824.632 1.08 1.104.264.464.396.996.396 1.596 0 .616-.14 1.164-.42 1.644a2.82 2.82 0 01-1.164 1.104c-.496.264-1.064.396-1.704.396-1.08 0-1.916-.368-2.508-1.104-.584-.744-.876-1.788-.876-3.132 0-1.304.268-2.324.804-3.06.536-.744 1.356-1.236 2.46-1.476l2.904-.648.168 1.056-2.676.576c-.832.184-1.452.496-1.86.936-.408.44-.64 1.072-.696 1.896a2.799 2.799 0 011.056-.948 3.107 3.107 0 011.452-.336zm-.204 5.28c.408 0 .768-.092 1.08-.276a1.93 1.93 0 00.744-.756c.176-.328.264-.7.264-1.116 0-.632-.192-1.14-.576-1.524-.384-.384-.888-.576-1.512-.576s-1.132.192-1.524.576c-.384.384-.576.892-.576 1.524 0 .416.088.788.264 1.116.184.32.436.572.756.756.32.184.68.276 1.08.276zm7.633.936c-.632 0-1.2-.14-1.704-.42-.504-.28-.9-.664-1.188-1.152a3.357 3.357 0 01-.42-1.68c0-.624.14-1.18.42-1.668.288-.496.684-.88 1.188-1.152a3.449 3.449 0 011.704-.42c.632 0 1.196.14 1.692.42.504.272.896.656 1.176 1.152.288.488.432 1.044.432 1.668 0 .624-.144 1.184-.432 1.68-.28.488-.672.872-1.176 1.152-.496.28-1.06.42-1.692.42zm0-1.008a2.15 2.15 0 001.092-.276 2.03 2.03 0 00.768-.792c.184-.344.276-.736.276-1.176 0-.44-.092-.828-.276-1.164a1.93 1.93 0 00-.768-.792 2.15 2.15 0 00-1.092-.276c-.408 0-.776.092-1.104.276-.32.184-.576.448-.768.792a2.385 2.385 0 00-.276 1.164c0 .44.092.832.276 1.176.192.336.448.6.768.792.328.184.696.276 1.104.276zm8.336-5.484c.616 0 1.168.136 1.656.408.488.272.868.652 1.14 1.14.28.488.42 1.052.42 1.692 0 .64-.14 1.208-.42 1.704a2.894 2.894 0 01-1.14 1.14 3.343 3.343 0 01-1.656.408c-.456 0-.876-.088-1.26-.264a2.621 2.621 0 01-.96-.768v3.288h-1.152v-8.688h1.104v1.008c.256-.352.58-.616.972-.792a3.012 3.012 0 011.296-.276zm-.096 5.484a2.15 2.15 0 001.092-.276 2.03 2.03 0 00.768-.792c.192-.344.288-.736.288-1.176 0-.44-.096-.828-.288-1.164a1.93 1.93 0 00-.768-.792 2.15 2.15 0 00-1.092-.276c-.4 0-.764.096-1.092.288-.32.184-.576.444-.768.78a2.385 2.385 0 00-.276 1.164c0 .44.092.832.276 1.176.184.336.44.6.768.792.328.184.692.276 1.092.276zm7.709 1.008c-.632 0-1.2-.14-1.704-.42-.504-.28-.9-.664-1.188-1.152a3.357 3.357 0 01-.42-1.68c0-.624.14-1.18.42-1.668.288-.496.684-.88 1.188-1.152a3.449 3.449 0 011.704-.42c.632 0 1.196.14 1.692.42.504.272.896.656 1.176 1.152.288.488.432 1.044.432 1.668 0 .624-.144 1.184-.432 1.68-.28.488-.672.872-1.176 1.152-.496.28-1.06.42-1.692.42zm0-1.008a2.15 2.15 0 001.092-.276 2.03 2.03 0 00.768-.792c.184-.344.276-.736.276-1.176 0-.44-.092-.828-.276-1.164a1.93 1.93 0 00-.768-.792 2.15 2.15 0 00-1.092-.276c-.408 0-.776.092-1.104.276-.32.184-.576.448-.768.792a2.385 2.385 0 00-.276 1.164c0 .44.092.832.276 1.176.192.336.448.6.768.792.328.184.696.276 1.104.276zm9.47-4.416h-2.328V612h-1.152v-5.352h-2.328v-1.008h5.808v1.008zm4.046 1.152c.8.008 1.412.192 1.836.552.424.36.636.868.636 1.524 0 .688-.232 1.22-.696 1.596-.456.368-1.112.548-1.968.54l-2.676-.012v-6.36h1.152v2.148l1.716.012zm3.42-2.16h1.152V612h-1.152v-6.36zm-3.696 5.496c.52.008.912-.096 1.176-.312.272-.216.408-.536.408-.96 0-.416-.132-.72-.396-.912-.264-.192-.66-.292-1.188-.3l-1.44-.024v2.496l1.44.012zM13 49.12l-6.12.012 5.1 3.036v.552l-5.064 3.036H13v1.152H4.6v-.984l5.904-3.504L4.6 48.964v-.984l8.4-.012v1.152zm.072-6.299c0 .632-.14 1.2-.42 1.704-.28.504-.664.9-1.152 1.188-.496.28-1.056.42-1.68.42-.624 0-1.18-.14-1.668-.42A2.992 2.992 0 017 44.525a3.449 3.449 0 01-.42-1.704c0-.632.14-1.196.42-1.692a2.911 2.911 0 011.152-1.176c.488-.288 1.044-.432 1.668-.432.624 0 1.184.144 1.68.432.488.28.872.672 1.152 1.176.28.496.42 1.06.42 1.692zm-1.008 0a2.15 2.15 0 00-.276-1.092 2.03 2.03 0 00-.792-.768 2.454 2.454 0 00-1.176-.276c-.44 0-.828.092-1.164.276a1.93 1.93 0 00-.792.768 2.15 2.15 0 00-.276 1.092c0 .408.092.776.276 1.104.184.32.448.576.792.768.336.184.724.276 1.164.276.44 0 .832-.092 1.176-.276.336-.192.6-.448.792-.768.184-.328.276-.696.276-1.104zM6.64 30.526H13v1.044H8.356l3.924 2.376v.504l-3.936 2.352H13v1.056H6.64V36.67l4.296-2.496-4.296-2.568v-1.08zm3.216-7.99c.088 0 .204.008.348.024v5.16a2.029 2.029 0 001.356-.732c.336-.424.504-.948.504-1.572 0-.76-.256-1.372-.768-1.836l.744-.636c.336.288.592.648.768 1.08.176.424.264.9.264 1.428 0 .672-.136 1.268-.408 1.788-.28.52-.668.924-1.164 1.212-.496.28-1.056.42-1.68.42a3.411 3.411 0 01-1.668-.408c-.496-.28-.88-.66-1.152-1.14a3.244 3.244 0 01-.42-1.644c0-.608.14-1.148.42-1.62.272-.48.656-.852 1.152-1.116.496-.272 1.064-.408 1.704-.408zM7.552 25.68c0 .552.168 1.016.504 1.392.336.368.776.584 1.32.648v-4.08c-.536.064-.972.284-1.308.66-.344.368-.516.828-.516 1.38zm-.912-4.932v-1.152h2.7v-3.624h-2.7V14.82H13v1.152h-2.664v3.624H13v1.152H6.64zM7.648 7.84v2.329H13v1.151H7.648v2.329H6.64V7.84h1.008z" fill="#BCBCBC"/><path transform="rotate(-180 42.244 349.695)" fill="url(#paint0_linear)" d="M42.244 349.695h10.514v243.93H42.244z"/><path stroke="#EB5757" d="M223.602 350.195H31.73"/><path stroke="#A1A3A4" d="M414.598 350.195H222.726"/><g filter="url(#filter0_dd)">
<ellipse cx="223.166" cy="343.56" rx="6.571" ry="6.557" fill="#EB5757"/></g><g filter="url(#filter1_dd)">
<ellipse cx="366.85" cy="98.757" rx="6.571" ry="6.557" fill="#F2994A"/></g>
<ellipse cx="414.161" cy="105.328" rx="2.19" ry="2.186" fill="#A1A3A4"/>
<ellipse cx="414.161" cy="350.132" rx="2.19" ry="2.186" fill="#A1A3A4"/>
<path stroke="#fff" d="M414.102 589.34H31.561"/><path stroke="#E4E4E4" stroke-opacity=".1" d="M366.282 7.181H32.515m333.768 49.626H32.516"/><path stroke="#454545" stroke-opacity=".1" d="M415.058 105.48H32.517"/><path stroke="#E4E4E4" stroke-opacity=".1" d="M366.283 154.152H32.516m333.767 49.627H32.516m333.767 48.672H32.516m333.767 48.672H32.516"/><path stroke="#454545" stroke-opacity=".1" d="M415.058 349.796H32.517"/><path stroke="#E4E4E4" stroke-opacity=".1" d="M366.283 399.423H32.516m333.767 48.672H32.516m333.767 48.672H32.516m333.767 49.627H32.516M366.74 588.84V7.635M318.923 588.84V7.635M271.105 588.84V7.635M223.287 588.84V7.635M175.47 588.84V7.635M127.652 588.84V7.635M79.834 588.84V7.635"/><path d="M436.653 22.803a8.264 8.264 0 01-2.254-.308c-.718-.215-1.297-.49-1.736-.826l.77-1.708c.42.308.92.555 1.498.742a5.63 5.63 0 001.736.28c.644 0 1.12-.093 1.428-.28.308-.196.462-.453.462-.77a.702.702 0 00-.28-.574 1.913 1.913 0 00-.7-.378 13.12 13.12 0 00-1.148-.308 15.986 15.986 0 01-1.834-.532 3.037 3.037 0 01-1.232-.854c-.336-.392-.504-.915-.504-1.568 0-.57.154-1.083.462-1.54.308-.467.77-.835 1.386-1.106.626-.27 1.386-.406 2.282-.406.626 0 1.237.075 1.834.224.598.15 1.12.364 1.568.644l-.7 1.722c-.905-.513-1.81-.77-2.716-.77-.634 0-1.106.103-1.414.308-.298.205-.448.476-.448.812 0 .336.173.588.518.756.355.159.892.317 1.61.476.747.177 1.358.355 1.834.532.476.177.882.457 1.218.84.346.383.518.9.518 1.554 0 .56-.158 1.073-.476 1.54-.308.457-.774.821-1.4 1.092-.625.27-1.386.406-2.282.406zm7.64-6.706c.262-.364.612-.64 1.05-.826.448-.187.962-.28 1.54-.28v2.016a7.91 7.91 0 00-.49-.028c-.625 0-1.115.177-1.47.532-.354.345-.532.868-.532 1.568v3.556h-2.184v-7.532h2.086v.994zm3.889-.994h2.184v7.532h-2.184v-7.532zm1.092-1.05c-.402 0-.728-.117-.98-.35a1.135 1.135 0 01-.378-.868c0-.345.126-.635.378-.868.252-.233.578-.35.98-.35.401 0 .728.112.98.336.252.224.378.504.378.84 0 .364-.126.667-.378.91-.252.233-.579.35-.98.35zm10.497 4.844c0 .028-.014.224-.042.588h-5.698c.102.467.345.835.728 1.106.382.27.858.406 1.428.406.392 0 .737-.056 1.036-.168.308-.121.592-.308.854-.56l1.162 1.26c-.71.812-1.746 1.218-3.108 1.218-.85 0-1.601-.163-2.254-.49-.654-.336-1.158-.798-1.512-1.386-.355-.588-.532-1.255-.532-2.002 0-.737.172-1.4.518-1.988a3.67 3.67 0 011.442-1.386 4.227 4.227 0 012.058-.504c.737 0 1.404.159 2.002.476a3.42 3.42 0 011.4 1.372c.345.588.518 1.274.518 2.058zm-3.906-2.254c-.495 0-.91.14-1.246.42-.336.28-.542.663-.616 1.148h3.71c-.075-.476-.28-.854-.616-1.134-.336-.29-.747-.434-1.232-.434zm7.894 6.104a7.524 7.524 0 01-1.834-.224c-.598-.159-1.074-.355-1.428-.588l.728-1.568c.336.215.742.392 1.218.532.476.13.942.196 1.4.196.924 0 1.386-.229 1.386-.686 0-.215-.126-.369-.378-.462-.252-.093-.64-.173-1.162-.238-.616-.093-1.125-.2-1.526-.322a2.409 2.409 0 01-1.05-.644c-.29-.308-.434-.747-.434-1.316 0-.476.135-.896.406-1.26.28-.373.681-.663 1.204-.868.532-.205 1.157-.308 1.876-.308.532 0 1.059.06 1.582.182.532.112.97.27 1.316.476l-.728 1.554a4.347 4.347 0 00-2.17-.56c-.467 0-.817.065-1.05.196-.234.13-.35.299-.35.504 0 .233.126.397.378.49.252.093.653.182 1.204.266.616.103 1.12.215 1.512.336.392.112.732.322 1.022.63.289.308.434.737.434 1.288 0 .467-.14.882-.42 1.246-.28.364-.691.649-1.232.854-.532.196-1.167.294-1.904.294zm11.052-8.064h-3.136v-1.848h8.54v1.848h-3.136v7.952h-2.268v-7.952zm9.289 8.064c-.794 0-1.508-.163-2.142-.49a3.747 3.747 0 01-1.47-1.386c-.355-.588-.532-1.255-.532-2.002 0-.747.177-1.414.532-2.002a3.649 3.649 0 011.47-1.372c.634-.336 1.348-.504 2.142-.504.793 0 1.502.168 2.128.504a3.662 3.662 0 011.47 1.372c.354.588.532 1.255.532 2.002 0 .747-.178 1.414-.532 2.002a3.76 3.76 0 01-1.47 1.386c-.626.327-1.335.49-2.128.49zm0-1.792c.56 0 1.017-.187 1.372-.56.364-.383.546-.891.546-1.526s-.182-1.139-.546-1.512c-.355-.383-.812-.574-1.372-.574s-1.022.191-1.386.574c-.364.373-.546.877-.546 1.512s.182 1.143.546 1.526c.364.373.826.56 1.386.56zm7.676-4.858c.261-.364.611-.64 1.05-.826.448-.187.961-.28 1.54-.28v2.016a7.951 7.951 0 00-.49-.028c-.626 0-1.116.177-1.47.532-.355.345-.532.868-.532 1.568v3.556h-2.184v-7.532h2.086v.994zm11.464-.994V25.35h-2.184v-3.514c-.541.607-1.293.91-2.254.91a3.952 3.952 0 01-1.932-.476 3.425 3.425 0 01-1.344-1.358c-.327-.588-.49-1.27-.49-2.044 0-.775.163-1.456.49-2.044a3.426 3.426 0 011.344-1.358 3.953 3.953 0 011.932-.476c1.027 0 1.811.327 2.352.98v-.868h2.086zm-4.06 5.852c.551 0 1.008-.187 1.372-.56.364-.383.546-.891.546-1.526s-.182-1.139-.546-1.512c-.364-.383-.821-.574-1.372-.574-.56 0-1.022.191-1.386.574-.364.373-.546.877-.546 1.512s.182 1.143.546 1.526c.364.373.826.56 1.386.56zm13.67-5.852v7.532h-2.072v-.896a2.972 2.972 0 01-1.036.756 3.335 3.335 0 01-1.302.252c-.989 0-1.773-.285-2.352-.854-.579-.57-.868-1.414-.868-2.534v-4.256h2.184v3.934c0 1.213.509 1.82 1.526 1.82.523 0 .943-.168 1.26-.504.317-.345.476-.854.476-1.526v-3.724h2.184zm9.401 3.794c0 .028-.014.224-.042.588h-5.698c.103.467.346.835.728 1.106.383.27.859.406 1.428.406.392 0 .738-.056 1.036-.168.308-.121.593-.308.854-.56l1.162 1.26c-.709.812-1.745 1.218-3.108 1.218-.849 0-1.6-.163-2.254-.49a3.694 3.694 0 01-1.512-1.386c-.354-.588-.532-1.255-.532-2.002 0-.737.173-1.4.518-1.988a3.683 3.683 0 011.442-1.386 4.227 4.227 0 012.058-.504c.738 0 1.405.159 2.002.476a3.413 3.413 0 011.4 1.372c.346.588.518 1.274.518 2.058zm-3.906-2.254c-.494 0-.91.14-1.246.42-.336.28-.541.663-.616 1.148h3.71c-.074-.476-.28-.854-.616-1.134-.336-.29-.746-.434-1.232-.434z" fill="#fff"/><path stroke="#ECECEC" d="M32.017 588.84V6.681"/><path stroke="#F2994A" d="M31.731 105.265h334.68"/><path stroke="#A1A3A4" d="M366.41 105.265h48.187"/><g filter="url(#filter2_dd)"><path d="M32.607 587.862c98.822 0 190.558-124.151 190.558-238.684" stroke="#EB5757" stroke-width="3"/></g><g filter="url(#filter3_dd)"><path d="M32.607 587.862c190.078 0 334.242-190.161 334.242-483.489" stroke="#F2994A" stroke-width="3"/></g><defs><filter id="filter0_dd" x="196.595" y="323.575" width="53.142" height="53.114" filterUnits="userSpaceOnUse" color-interpolation-filters="sRGB"><feFlood flood-opacity="0" result="BackgroundImageFix"/><feColorMatrix in="SourceAlpha" values="0 0 0 0 0 0 0 0 0 0 0 0 0 0 0 0 0 0 127 0"/><feOffset/><feGaussianBlur stdDeviation="5"/><feColorMatrix values="0 0 0 0 0.94902 0 0 0 0 0.6 0 0 0 0 0.290196 0 0 0 1 0"/><feBlend in2="BackgroundImageFix" result="effect1_dropShadow"/><feColorMatrix in="SourceAlpha" values="0 0 0 0 0 0 0 0 0 0 0 0 0 0 0 0 0 0 127 0"/><feOffset/><feGaussianBlur stdDeviation="10"/><feColorMatrix values="0 0 0 0 0.94902 0 0 0 0 0.6 0 0 0 0 0.290196 0 0 0 1 0"/><feBlend in2="effect1_dropShadow" result="effect2_dropShadow"/><feBlend in="SourceGraphic" in2="effect2_dropShadow" result="shape"/></filter><filter id="filter1_dd" x="340.279" y="78.771" width="53.142" height="53.114" filterUnits="userSpaceOnUse" color-interpolation-filters="sRGB"><feFlood flood-opacity="0" result="BackgroundImageFix"/><feColorMatrix in="SourceAlpha" values="0 0 0 0 0 0 0 0 0 0 0 0 0 0 0 0 0 0 127 0"/><feOffset/><feGaussianBlur stdDeviation="5"/><feColorMatrix values="0 0 0 0 0.94902 0 0 0 0 0.788235 0 0 0 0 0.298039 0 0 0 1 0"/><feBlend in2="BackgroundImageFix" result="effect1_dropShadow"/><feColorMatrix in="SourceAlpha" values="0 0 0 0 0 0 0 0 0 0 0 0 0 0 0 0 0 0 127 0"/><feOffset/><feGaussianBlur stdDeviation="10"/><feColorMatrix values="0 0 0 0 0.94902 0 0 0 0 0.788235 0 0 0 0 0.298039 0 0 0 1 0"/><feBlend in2="effect1_dropShadow" result="effect2_dropShadow"/><feBlend in="SourceGraphic" in2="effect2_dropShadow" result="shape"/></filter><filter id="filter2_dd" x="12.607" y="329.178" width="232.057" height="280.184" filterUnits="userSpaceOnUse" color-interpolation-filters="sRGB"><feFlood flood-opacity="0" result="BackgroundImageFix"/><feColorMatrix in="SourceAlpha" values="0 0 0 0 0 0 0 0 0 0 0 0 0 0 0 0 0 0 127 0"/><feOffset/><feGaussianBlur stdDeviation="5"/><feColorMatrix values="0 0 0 0 0.94902 0 0 0 0 0.6 0 0 0 0 0.290196 0 0 0 1 0"/><feBlend in2="BackgroundImageFix" result="effect1_dropShadow"/><feColorMatrix in="SourceAlpha" values="0 0 0 0 0 0 0 0 0 0 0 0 0 0 0 0 0 0 127 0"/><feOffset/><feGaussianBlur stdDeviation="10"/><feColorMatrix values="0 0 0 0 0.94902 0 0 0 0 0.6 0 0 0 0 0.290196 0 0 0 1 0"/><feBlend in2="effect1_dropShadow" result="effect2_dropShadow"/><feBlend in="SourceGraphic" in2="effect2_dropShadow" result="shape"/></filter><filter id="filter3_dd" x="12.607" y="84.373" width="375.742" height="524.988" filterUnits="userSpaceOnUse" color-interpolation-filters="sRGB"><feFlood flood-opacity="0" result="BackgroundImageFix"/><feColorMatrix in="SourceAlpha" values="0 0 0 0 0 0 0 0 0 0 0 0 0 0 0 0 0 0 127 0"/><feOffset/><feGaussianBlur stdDeviation="5"/><feColorMatrix values="0 0 0 0 0.94902 0 0 0 0 0.788235 0 0 0 0 0.298039 0 0 0 1 0"/><feBlend in2="BackgroundImageFix" result="effect1_dropShadow"/><feColorMatrix in="SourceAlpha" values="0 0 0 0 0 0 0 0 0 0 0 0 0 0 0 0 0 0 127 0"/><feOffset/><feGaussianBlur stdDeviation="10"/><feColorMatrix values="0 0 0 0 0.94902 0 0 0 0 0.788235 0 0 0 0 0.298039 0 0 0 1 0"/><feBlend in2="effect1_dropShadow" result="effect2_dropShadow"/><feBlend in="SourceGraphic" in2="effect2_dropShadow" result="shape"/></filter><linearGradient id="paint0_linear" x1="47.501" y1="349.695" x2="47.501" y2="593.625" gradientUnits="userSpaceOnUse"><stop stop-color="#EB5757"/><stop offset="1" stop-color="#F2994A"/></linearGradient></defs></svg>