<svg width="652" height="708" fill="none" xmlns="http://www.w3.org/2000/svg"><path opacity=".8" d="M33.869 98.014c-.84 0-1.6-.184-2.28-.552a4.175 4.175 0 01-1.584-1.536c-.384-.656-.576-1.392-.576-2.208 0-.816.192-1.548.576-2.196a4.04 4.04 0 011.596-1.536c.68-.376 1.44-.564 2.28-.564.656 0 1.256.112 1.8.336.544.216 1.008.54 1.392.972l-.78.756c-.632-.664-1.42-.996-2.364-.996-.624 0-1.188.14-1.692.42-.504.28-.9.668-1.188 1.164a3.244 3.244 0 00-.42 1.644c0 .608.14 1.16.42 1.656.288.488.684.872 1.188 1.152.504.28 1.068.42 1.692.42.936 0 1.724-.336 2.364-1.008l.78.756c-.384.432-.852.76-1.404.984a4.684 4.684 0 01-1.8.336zm10.25-2.784h-1.236v2.688H41.73V95.23h-1.236l-1.752 2.688h-1.368l2.184-3.288-2.016-3.072h1.224l1.716 2.688h1.248v-2.688h1.152v2.688h1.248l1.716-2.688h1.236l-2.016 3.084 2.184 3.276h-1.368l-1.764-2.688zm6.55-3.732c.88 0 1.552.216 2.016.648.472.432.708 1.076.708 1.932v3.84h-1.092v-.84a1.853 1.853 0 01-.828.684c-.352.152-.772.228-1.26.228-.712 0-1.284-.172-1.716-.516-.424-.344-.636-.796-.636-1.356s.204-1.008.612-1.344c.408-.344 1.056-.516 1.944-.516h1.824v-.228c0-.496-.144-.876-.432-1.14-.288-.264-.712-.396-1.272-.396-.376 0-.744.064-1.104.192a2.76 2.76 0 00-.912.492l-.48-.864c.328-.264.72-.464 1.176-.6.456-.144.94-.216 1.452-.216zm-.264 5.604c.44 0 .82-.096 1.14-.288.32-.2.552-.48.696-.84v-.888h-1.776c-.976 0-1.464.328-1.464.984 0 .32.124.572.372.756.248.184.592.276 1.032.276zm9.803-4.536H57.88v5.352h-1.152v-5.352H54.4v-1.008h5.808v1.008zm1.178-1.008h1.151v4.632l3.9-4.632h1.044v6.36H66.33v-4.632l-3.889 4.632h-1.056v-6.36zm14.08 3.216c0 .088-.008.204-.024.348h-5.16c.072.56.316 1.012.732 1.356.424.336.948.504 1.572.504.76 0 1.372-.256 1.836-.768l.636.744a2.777 2.777 0 01-1.08.768c-.424.176-.9.264-1.428.264-.672 0-1.268-.136-1.788-.408a3.033 3.033 0 01-1.212-1.164 3.357 3.357 0 01-.42-1.68c0-.616.136-1.172.408-1.668.28-.496.66-.88 1.14-1.152a3.244 3.244 0 011.644-.42c.608 0 1.148.14 1.62.42.48.272.852.656 1.116 1.152.272.496.408 1.064.408 1.704zm-3.144-2.304c-.552 0-1.016.168-1.392.504-.368.336-.584.776-.648 1.32h4.08c-.064-.536-.284-.972-.66-1.308-.368-.344-.828-.516-1.38-.516zm-37.337 18.728H32.8v2.148h-1.008v-2.148h-2.184v-.948h2.184v-2.16H32.8v2.16h2.184v.948zm.36 16.364c.568.136.996.38 1.284.732.296.344.444.788.444 1.332 0 .728-.268 1.292-.804 1.692-.528.4-1.3.6-2.316.6h-3.84v-8.4h3.612c.92 0 1.636.188 2.148.564.52.368.78.9.78 1.596 0 .456-.116.844-.348 1.164-.224.32-.544.56-.96.72zm-4.044-.348h2.34c.584 0 1.028-.116 1.332-.348.312-.232.468-.572.468-1.02 0-.448-.156-.788-.468-1.02-.312-.24-.756-.36-1.332-.36H31.3v2.748zm2.628 3.756c1.288 0 1.932-.48 1.932-1.44 0-.48-.164-.832-.492-1.056-.32-.232-.8-.348-1.44-.348H31.3v2.844h2.628zm4.956-5.412h1.153v2.7h3.623v-2.7h1.152v6.36h-1.152v-2.664h-3.623v2.664h-1.152v-6.36zm13.845 0l-3.084 6.996c-.273.648-.593 1.104-.96 1.368-.36.264-.797.396-1.309.396-.312 0-.616-.052-.912-.156a1.807 1.807 0 01-.72-.432l.492-.864c.328.312.709.468 1.14.468.28 0 .512-.076.697-.228.192-.144.364-.396.516-.756l.203-.444-2.807-6.348h1.2l2.22 5.088 2.196-5.088h1.128zm5.954 1.008h-2.328v5.352h-1.152v-5.352h-2.328v-1.008h5.808v1.008zm4.55-1.068c.616 0 1.168.136 1.656.408.488.272.868.652 1.14 1.14.28.488.42 1.052.42 1.692 0 .64-.14 1.208-.42 1.704a2.894 2.894 0 01-1.14 1.14 3.343 3.343 0 01-1.656.408c-.456 0-.876-.088-1.26-.264a2.621 2.621 0 01-.96-.768v3.288h-1.152v-8.688h1.104v1.008c.256-.352.58-.616.972-.792a3.012 3.012 0 011.296-.276zm-.096 5.484a2.15 2.15 0 001.092-.276 2.03 2.03 0 00.768-.792c.192-.344.288-.736.288-1.176 0-.44-.096-.828-.288-1.164a1.93 1.93 0 00-.768-.792 2.15 2.15 0 00-1.092-.276c-.4 0-.764.096-1.092.288-.32.184-.576.444-.768.78a2.385 2.385 0 00-.276 1.164c0 .44.092.832.276 1.176.184.336.44.6.768.792.328.184.692.276 1.092.276zm10.734-2.208c0 .088-.008.204-.024.348h-5.16c.072.56.316 1.012.732 1.356.424.336.948.504 1.572.504.76 0 1.372-.256 1.836-.768l.636.744a2.777 2.777 0 01-1.08.768c-.424.176-.9.264-1.428.264-.672 0-1.268-.136-1.788-.408a3.033 3.033 0 01-1.212-1.164 3.357 3.357 0 01-.42-1.68c0-.616.136-1.172.408-1.668.28-.496.66-.88 1.14-1.152a3.244 3.244 0 011.644-.42c.608 0 1.148.14 1.62.42.48.272.852.656 1.116 1.152.272.496.408 1.064.408 1.704zm-3.144-2.304c-.552 0-1.016.168-1.392.504-.368.336-.584.776-.648 1.32h4.08c-.064-.536-.284-.972-.66-1.308-.368-.344-.828-.516-1.38-.516zm4.931-.912h1.152v2.7h3.624v-2.7h1.152v6.36h-1.152v-2.664h-3.624v2.664h-1.152v-6.36zm8.168 0h1.152v2.7h3.624v-2.7h1.152v6.36h-1.152v-2.664h-3.624v2.664h-1.152v-6.36zm13.916 3.216c0 .088-.008.204-.024.348h-5.16c.072.56.316 1.012.732 1.356.424.336.948.504 1.572.504.76 0 1.372-.256 1.836-.768l.636.744a2.777 2.777 0 01-1.08.768c-.424.176-.9.264-1.428.264-.672 0-1.268-.136-1.788-.408a3.033 3.033 0 01-1.212-1.164 3.357 3.357 0 01-.42-1.68c0-.616.136-1.172.408-1.668.28-.496.66-.88 1.14-1.152a3.244 3.244 0 011.644-.42c.608 0 1.148.14 1.62.42.48.272.852.656 1.116 1.152.272.496.408 1.064.408 1.704zm-3.144-2.304c-.552 0-1.016.168-1.392.504-.368.336-.584.776-.648 1.32h4.08c-.064-.536-.284-.972-.66-1.308-.368-.344-.828-.516-1.38-.516zm10.679 2.304c0 .088-.008.204-.024.348h-5.16c.072.56.316 1.012.732 1.356.424.336.948.504 1.572.504.76 0 1.372-.256 1.836-.768l.636.744a2.777 2.777 0 01-1.08.768c-.424.176-.9.264-1.428.264-.672 0-1.268-.136-1.788-.408a3.033 3.033 0 01-1.212-1.164 3.357 3.357 0 01-.42-1.68c0-.616.136-1.172.408-1.668.28-.496.66-.88 1.14-1.152a3.244 3.244 0 011.644-.42c.608 0 1.148.14 1.62.42.48.272.852.656 1.116 1.152.272.496.408 1.064.408 1.704zm-3.144-2.304c-.552 0-1.016.168-1.392.504-.368.336-.584.776-.648 1.32h4.08c-.064-.536-.284-.972-.66-1.308-.368-.344-.828-.516-1.38-.516zm14.622 4.44v2.484h-1.08v-1.476h-5.316v1.476h-1.092v-2.484h.336c.408-.024.688-.312.84-.864.152-.552.256-1.332.312-2.34l.096-2.148h4.932v5.352h.972zm-4.944-3.12c-.032.8-.1 1.464-.204 1.992-.096.52-.276.896-.54 1.128h3.564v-4.344h-2.76l-.06 1.224zm8.713-2.292c.88 0 1.552.216 2.016.648.472.432.708 1.076.708 1.932v3.84h-1.092v-.84a1.853 1.853 0 01-.828.684c-.352.152-.772.228-1.26.228-.712 0-1.284-.172-1.716-.516-.424-.344-.636-.796-.636-1.356s.204-1.008.612-1.344c.408-.344 1.056-.516 1.944-.516h1.824v-.228c0-.496-.144-.876-.432-1.14-.288-.264-.712-.396-1.272-.396-.376 0-.744.064-1.104.192a2.76 2.76 0 00-.912.492l-.48-.864c.328-.264.72-.464 1.176-.6.456-.144.94-.216 1.452-.216zm-.264 5.604c.44 0 .82-.096 1.14-.288.32-.2.552-.48.696-.84v-.888h-1.776c-.976 0-1.464.328-1.464.984 0 .32.124.572.372.756.248.184.592.276 1.032.276zm9.394-2.484c.824.208 1.236.724 1.236 1.548 0 .56-.212.992-.636 1.296-.416.304-1.04.456-1.872.456h-3.06v-6.36h2.952c.752 0 1.34.144 1.764.432.424.28.636.68.636 1.2 0 .336-.092.628-.276.876-.176.24-.424.424-.744.552zm-3.204-.324h1.728c.44 0 .772-.08.996-.24.232-.16.348-.392.348-.696 0-.608-.448-.912-1.344-.912h-1.728v1.848zm1.848 2.736c.48 0 .84-.076 1.08-.228.24-.152.36-.388.36-.708 0-.328-.112-.572-.336-.732-.216-.16-.56-.24-1.032-.24h-1.92v1.908h1.848zm9.855-5.472v6.36h-1.152v-5.352h-2.736l-.072 1.416c-.04.856-.116 1.572-.228 2.148-.112.568-.296 1.024-.552 1.368-.256.344-.612.516-1.068.516-.208 0-.444-.036-.708-.108l.072-.972c.104.024.2.036.288.036.32 0 .56-.14.72-.42.16-.28.264-.612.312-.996.048-.384.092-.932.132-1.644l.108-2.352h4.884zm7.976 3.216c0 .088-.008.204-.024.348h-5.16c.072.56.316 1.012.732 1.356.424.336.948.504 1.572.504.76 0 1.372-.256 1.836-.768l.636.744a2.777 2.777 0 01-1.08.768c-.424.176-.9.264-1.428.264-.672 0-1.268-.136-1.788-.408a3.033 3.033 0 01-1.212-1.164 3.357 3.357 0 01-.42-1.68c0-.616.136-1.172.408-1.668.28-.496.66-.88 1.14-1.152a3.244 3.244 0 011.644-.42c.608 0 1.148.14 1.62.42.48.272.852.656 1.116 1.152.272.496.408 1.064.408 1.704zm-3.144-2.304c-.552 0-1.016.168-1.392.504-.368.336-.584.776-.648 1.32h4.08c-.064-.536-.284-.972-.66-1.308-.368-.344-.828-.516-1.38-.516zm4.931-.912h1.152v2.7h3.624v-2.7h1.152v6.36h-1.152v-2.664h-3.624v2.664h-1.152v-6.36zm8.168 0h1.152v4.632l3.9-4.632h1.044v6.36h-1.152v-4.632l-3.888 4.632h-1.056v-6.36zm14.08 3.216c0 .088-.008.204-.024.348h-5.16c.072.56.316 1.012.732 1.356.424.336.948.504 1.572.504.76 0 1.372-.256 1.836-.768l.636.744a2.777 2.777 0 01-1.08.768c-.424.176-.9.264-1.428.264-.672 0-1.268-.136-1.788-.408a3.033 3.033 0 01-1.212-1.164 3.357 3.357 0 01-.42-1.68c0-.616.136-1.172.408-1.668.28-.496.66-.88 1.14-1.152a3.244 3.244 0 011.644-.42c.608 0 1.148.14 1.62.42.48.272.852.656 1.116 1.152.272.496.408 1.064.408 1.704zm-3.144-2.304c-.552 0-1.016.168-1.392.504-.368.336-.584.776-.648 1.32h4.08c-.064-.536-.284-.972-.66-1.308-.368-.344-.828-.516-1.38-.516zM538.14 89.518c1.088 0 1.944.26 2.568.78.624.52.936 1.236.936 2.148 0 .912-.312 1.628-.936 2.148-.624.52-1.48.78-2.568.78h-2.076v2.544h-1.2v-8.4h3.276zm-.036 4.812c.76 0 1.34-.16 1.74-.48.4-.328.6-.796.6-1.404 0-.608-.2-1.072-.6-1.392-.4-.328-.98-.492-1.74-.492h-2.04v3.768h2.04zm7.227-2.832c.88 0 1.552.216 2.016.648.472.432.708 1.076.708 1.932v3.84h-1.092v-.84a1.853 1.853 0 01-.828.684c-.352.152-.772.228-1.26.228-.712 0-1.284-.172-1.716-.516-.424-.344-.636-.796-.636-1.356s.204-1.008.612-1.344c.408-.344 1.056-.516 1.944-.516h1.824v-.228c0-.496-.144-.876-.432-1.14-.288-.264-.712-.396-1.272-.396-.376 0-.744.064-1.104.192a2.76 2.76 0 00-.912.492l-.48-.864c.328-.264.72-.464 1.176-.6.456-.144.94-.216 1.452-.216zm-.264 5.604c.44 0 .82-.096 1.14-.288.32-.2.552-.48.696-.84v-.888h-1.776c-.976 0-1.464.328-1.464.984 0 .32.124.572.372.756.248.184.592.276 1.032.276zm7.834.888c-.648 0-1.228-.14-1.74-.42-.504-.28-.9-.664-1.188-1.152a3.284 3.284 0 01-.432-1.68c0-.624.144-1.18.432-1.668.288-.496.684-.88 1.188-1.152.512-.28 1.092-.42 1.74-.42.576 0 1.088.116 1.536.348a2.47 2.47 0 011.056 1.008l-.876.564a1.957 1.957 0 00-.744-.684 2.122 2.122 0 00-.984-.228 2.31 2.31 0 00-1.128.276 2.008 2.008 0 00-.78.792 2.385 2.385 0 00-.276 1.164c0 .448.092.844.276 1.188.192.336.452.596.78.78a2.31 2.31 0 001.128.276c.36 0 .688-.076.984-.228.296-.152.544-.38.744-.684l.876.552c-.248.44-.6.78-1.056 1.02-.448.232-.96.348-1.536.348zm8.741-5.424h-2.328v5.352h-1.152v-5.352h-2.328v-1.008h5.808v1.008zm6.173-1.008v6.36h-1.032v-2.016h-1.98l-1.392 2.016h-1.236l1.548-2.172c-.48-.144-.848-.38-1.104-.708-.256-.336-.384-.752-.384-1.248 0-.728.248-1.28.744-1.656.496-.384 1.18-.576 2.052-.576h2.784zm-4.404 2.268c0 .424.132.74.396.948.272.2.676.3 1.212.3h1.764v-2.508h-1.716c-1.104 0-1.656.42-1.656 1.26zm12.436 1.404h-1.236v2.688h-1.152V95.23h-1.236l-1.752 2.688h-1.368l2.184-3.288-2.016-3.072h1.224l1.716 2.688h1.248v-2.688h1.152v2.688h1.248l1.716-2.688h1.236l-2.016 3.084 2.184 3.276h-1.368l-1.764-2.688zm9.936-.456c0 .088-.008.204-.024.348h-5.16c.072.56.316 1.012.732 1.356.424.336.948.504 1.572.504.76 0 1.372-.256 1.836-.768l.636.744a2.777 2.777 0 01-1.08.768c-.424.176-.9.264-1.428.264-.672 0-1.268-.136-1.788-.408a3.033 3.033 0 01-1.212-1.164 3.357 3.357 0 01-.42-1.68c0-.616.136-1.172.408-1.668.28-.496.66-.88 1.14-1.152a3.244 3.244 0 011.644-.42c.608 0 1.148.14 1.62.42.48.272.852.656 1.116 1.152.272.496.408 1.064.408 1.704zm-3.144-2.304c-.552 0-1.016.168-1.392.504-.368.336-.584.776-.648 1.32h4.08c-.064-.536-.284-.972-.66-1.308-.368-.344-.828-.516-1.38-.516zm4.931-.912h1.152v2.7h3.624v-2.7h1.152v6.36h-1.152v-2.664h-3.624v2.664h-1.152v-6.36zm8.168 0h1.152v4.632l3.9-4.632h1.044v6.36h-1.152v-4.632l-3.888 4.632h-1.056v-6.36zm14.08 3.216c0 .088-.008.204-.024.348h-5.16c.072.56.316 1.012.732 1.356.424.336.948.504 1.572.504.76 0 1.372-.256 1.836-.768l.636.744a2.777 2.777 0 01-1.08.768c-.424.176-.9.264-1.428.264-.672 0-1.268-.136-1.788-.408a3.033 3.033 0 01-1.212-1.164 3.357 3.357 0 01-.42-1.68c0-.616.136-1.172.408-1.668.28-.496.66-.88 1.14-1.152a3.244 3.244 0 011.644-.42c.608 0 1.148.14 1.62.42.48.272.852.656 1.116 1.152.272.496.408 1.064.408 1.704zm-3.144-2.304c-.552 0-1.016.168-1.392.504-.368.336-.584.776-.648 1.32h4.08c-.064-.536-.284-.972-.66-1.308-.368-.344-.828-.516-1.38-.516zm3.011 18.728h-2.184v2.148h-1.008v-2.148h-2.184v-.948h2.184v-2.16h1.008v2.16h2.184v.948zm-134.687 16.364c.568.136.996.38 1.284.732.296.344.444.788.444 1.332 0 .728-.268 1.292-.804 1.692-.528.4-1.3.6-2.316.6h-3.84v-8.4h3.612c.92 0 1.636.188 2.148.564.52.368.78.9.78 1.596 0 .456-.116.844-.348 1.164-.224.32-.544.56-.96.72zm-4.044-.348h2.34c.584 0 1.028-.116 1.332-.348.312-.232.468-.572.468-1.02 0-.448-.156-.788-.468-1.02-.312-.24-.756-.36-1.332-.36h-2.34v2.748zm2.628 3.756c1.288 0 1.932-.48 1.932-1.44 0-.48-.164-.832-.492-1.056-.32-.232-.8-.348-1.44-.348h-2.628v2.844h2.628zm4.957-5.412h1.152v2.7h3.624v-2.7h1.152v6.36h-1.152v-2.664h-3.624v2.664h-1.152v-6.36zm13.844 0l-3.084 6.996c-.272.648-.592 1.104-.96 1.368-.36.264-.796.396-1.308.396-.312 0-.616-.052-.912-.156a1.807 1.807 0 01-.72-.432l.492-.864c.328.312.708.468 1.14.468.28 0 .512-.076.696-.228.192-.144.364-.396.516-.756l.204-.444-2.808-6.348h1.2l2.22 5.088 2.196-5.088h1.128zm5.955 1.008h-2.328v5.352h-1.152v-5.352h-2.328v-1.008h5.808v1.008zm4.55-1.068c.616 0 1.168.136 1.656.408.488.272.868.652 1.14 1.14.28.488.42 1.052.42 1.692 0 .64-.14 1.208-.42 1.704a2.894 2.894 0 01-1.14 1.14 3.343 3.343 0 01-1.656.408c-.456 0-.876-.088-1.26-.264a2.621 2.621 0 01-.96-.768v3.288h-1.152v-8.688h1.104v1.008c.256-.352.58-.616.972-.792a3.012 3.012 0 011.296-.276zm-.096 5.484a2.15 2.15 0 001.092-.276 2.03 2.03 0 00.768-.792c.192-.344.288-.736.288-1.176 0-.44-.096-.828-.288-1.164a1.93 1.93 0 00-.768-.792 2.15 2.15 0 00-1.092-.276c-.4 0-.764.096-1.092.288-.32.184-.576.444-.768.78a2.385 2.385 0 00-.276 1.164c0 .44.092.832.276 1.176.184.336.44.6.768.792.328.184.692.276 1.092.276zm10.733-2.208c0 .088-.008.204-.024.348h-5.16c.072.56.316 1.012.732 1.356.424.336.948.504 1.572.504.76 0 1.372-.256 1.836-.768l.636.744a2.777 2.777 0 01-1.08.768c-.424.176-.9.264-1.428.264-.672 0-1.268-.136-1.788-.408a3.033 3.033 0 01-1.212-1.164 3.357 3.357 0 01-.42-1.68c0-.616.136-1.172.408-1.668.28-.496.66-.88 1.14-1.152a3.244 3.244 0 011.644-.42c.608 0 1.148.14 1.62.42.48.272.852.656 1.116 1.152.272.496.408 1.064.408 1.704zm-3.144-2.304c-.552 0-1.016.168-1.392.504-.368.336-.584.776-.648 1.32h4.08c-.064-.536-.284-.972-.66-1.308-.368-.344-.828-.516-1.38-.516zm4.932-.912h1.152v2.7h3.624v-2.7h1.152v6.36h-1.152v-2.664h-3.624v2.664h-1.152v-6.36zm8.168 0h1.152v2.7h3.624v-2.7h1.152v6.36h-1.152v-2.664h-3.624v2.664h-1.152v-6.36zm13.916 3.216c0 .088-.008.204-.024.348h-5.16c.072.56.316 1.012.732 1.356.424.336.948.504 1.572.504.76 0 1.372-.256 1.836-.768l.636.744a2.777 2.777 0 01-1.08.768c-.424.176-.9.264-1.428.264-.672 0-1.268-.136-1.788-.408a3.033 3.033 0 01-1.212-1.164 3.357 3.357 0 01-.42-1.68c0-.616.136-1.172.408-1.668.28-.496.66-.88 1.14-1.152a3.244 3.244 0 011.644-.42c.608 0 1.148.14 1.62.42.48.272.852.656 1.116 1.152.272.496.408 1.064.408 1.704zm-3.144-2.304c-.552 0-1.016.168-1.392.504-.368.336-.584.776-.648 1.32h4.08c-.064-.536-.284-.972-.66-1.308-.368-.344-.828-.516-1.38-.516zm10.679 2.304c0 .088-.008.204-.024.348h-5.16c.072.56.316 1.012.732 1.356.424.336.948.504 1.572.504.76 0 1.372-.256 1.836-.768l.636.744a2.777 2.777 0 01-1.08.768c-.424.176-.9.264-1.428.264-.672 0-1.268-.136-1.788-.408a3.033 3.033 0 01-1.212-1.164 3.357 3.357 0 01-.42-1.68c0-.616.136-1.172.408-1.668.28-.496.66-.88 1.14-1.152a3.244 3.244 0 011.644-.42c.608 0 1.148.14 1.62.42.48.272.852.656 1.116 1.152.272.496.408 1.064.408 1.704zm-3.144-2.304c-.552 0-1.016.168-1.392.504-.368.336-.584.776-.648 1.32h4.08c-.064-.536-.284-.972-.66-1.308-.368-.344-.828-.516-1.38-.516zm14.622 4.44v2.484h-1.08v-1.476h-5.316v1.476h-1.092v-2.484h.336c.408-.024.688-.312.84-.864.152-.552.256-1.332.312-2.34l.096-2.148h4.932v5.352h.972zm-4.944-3.12c-.032.8-.1 1.464-.204 1.992-.096.52-.276.896-.54 1.128h3.564v-4.344h-2.76l-.06 1.224zm8.712-2.292c.88 0 1.552.216 2.016.648.472.432.708 1.076.708 1.932v3.84h-1.092v-.84a1.853 1.853 0 01-.828.684c-.352.152-.772.228-1.26.228-.712 0-1.284-.172-1.716-.516-.424-.344-.636-.796-.636-1.356s.204-1.008.612-1.344c.408-.344 1.056-.516 1.944-.516h1.824v-.228c0-.496-.144-.876-.432-1.14-.288-.264-.712-.396-1.272-.396-.376 0-.744.064-1.104.192a2.76 2.76 0 00-.912.492l-.48-.864c.328-.264.72-.464 1.176-.6.456-.144.94-.216 1.452-.216zm-.264 5.604c.44 0 .82-.096 1.14-.288.32-.2.552-.48.696-.84v-.888h-1.776c-.976 0-1.464.328-1.464.984 0 .32.124.572.372.756.248.184.592.276 1.032.276zm9.395-2.484c.824.208 1.236.724 1.236 1.548 0 .56-.212.992-.636 1.296-.416.304-1.04.456-1.872.456h-3.06v-6.36h2.952c.752 0 1.34.144 1.764.432.424.28.636.68.636 1.2 0 .336-.092.628-.276.876-.176.24-.424.424-.744.552zm-3.204-.324h1.728c.44 0 .772-.08.996-.24.232-.16.348-.392.348-.696 0-.608-.448-.912-1.344-.912h-1.728v1.848zm1.848 2.736c.48 0 .84-.076 1.08-.228.24-.152.36-.388.36-.708 0-.328-.112-.572-.336-.732-.216-.16-.56-.24-1.032-.24h-1.92v1.908h1.848zm9.855-5.472v6.36h-1.152v-5.352h-2.736l-.072 1.416c-.04.856-.116 1.572-.228 2.148-.112.568-.296 1.024-.552 1.368-.256.344-.612.516-1.068.516-.208 0-.444-.036-.708-.108l.072-.972c.104.024.2.036.288.036.32 0 .56-.14.72-.42.16-.28.264-.612.312-.996.048-.384.092-.932.132-1.644l.108-2.352h4.884zm7.975 3.216c0 .088-.008.204-.024.348h-5.16c.072.56.316 1.012.732 1.356.424.336.948.504 1.572.504.76 0 1.372-.256 1.836-.768l.636.744a2.777 2.777 0 01-1.08.768c-.424.176-.9.264-1.428.264-.672 0-1.268-.136-1.788-.408a3.033 3.033 0 01-1.212-1.164 3.357 3.357 0 01-.42-1.68c0-.616.136-1.172.408-1.668.28-.496.66-.88 1.14-1.152a3.244 3.244 0 011.644-.42c.608 0 1.148.14 1.62.42.48.272.852.656 1.116 1.152.272.496.408 1.064.408 1.704zm-3.144-2.304c-.552 0-1.016.168-1.392.504-.368.336-.584.776-.648 1.32h4.08c-.064-.536-.284-.972-.66-1.308-.368-.344-.828-.516-1.38-.516zm4.931-.912h1.152v2.7h3.624v-2.7h1.152v6.36h-1.152v-2.664h-3.624v2.664h-1.152v-6.36zm8.168 0h1.152v4.632l3.9-4.632h1.044v6.36h-1.152v-4.632l-3.888 4.632h-1.056v-6.36zm14.08 3.216c0 .088-.008.204-.024.348h-5.16c.072.56.316 1.012.732 1.356.424.336.948.504 1.572.504.76 0 1.372-.256 1.836-.768l.636.744a2.777 2.777 0 01-1.08.768c-.424.176-.9.264-1.428.264-.672 0-1.268-.136-1.788-.408a3.033 3.033 0 01-1.212-1.164 3.357 3.357 0 01-.42-1.68c0-.616.136-1.172.408-1.668.28-.496.66-.88 1.14-1.152a3.244 3.244 0 011.644-.42c.608 0 1.148.14 1.62.42.48.272.852.656 1.116 1.152.272.496.408 1.064.408 1.704zm-3.144-2.304c-.552 0-1.016.168-1.392.504-.368.336-.584.776-.648 1.32h4.08c-.064-.536-.284-.972-.66-1.308-.368-.344-.828-.516-1.38-.516z" fill="#fff"/><path stroke="#fff" stroke-opacity=".1" d="M637.588 708V0m-57.32 708V0m-58.379 708V0m-58.381 708V0m-57.32 708V0m-58.381 708V0m-57.319 708V0m-58.381 708V0m-57.32 708V0m-58.381 708V0M58.025 708V0M.707 708V0m636.32.5H1.207m635.82 59.442H1.207m635.82 59.443H1.207m635.82 59.442H1.207m635.82 59.442H1.207m635.82 59.442H1.207m635.82 59.443H1.207m635.82 59.442H1.207m635.82 59.442H1.207m635.82 59.442H1.207m635.82 59.443H1.207m635.82 59.442H1.207m635.82 53.135H1.207"/><path d="M67.66 434.562c-5.24-15.005-2.68-31.449 6.53-48.371 9.21-16.924 25.053-34.288 46.299-51.09C162.98 301.498 227 270.207 302.481 249.215c75.481-20.992 148.087-27.698 204.446-21.587 28.181 3.056 52.273 9.313 70.627 18.571 18.351 9.257 30.926 21.492 36.166 36.497 4.766 13.65 2.355 28.538-6.034 43.93-8.39 15.394-22.739 31.251-41.761 46.792-38.025 31.07-94.644 60.814-159.351 83.05H82.069c-6.554-6.319-11.66-14.037-14.409-21.906z" stroke="#fff"/><path stroke="#fff" stroke-opacity=".4" d="M.145 357.215h637.943"/><path d="M570.664 289.976c-20.286-58.09-129.268-79.445-243.419-47.698-84.178 23.411-147.66 69.161-167.059 114.866v99.248H406.72c97.36-35.186 182.42-113.509 163.944-166.416z" fill="#fff" fill-opacity=".2"/><path d="M406.72 456.392c97.36-35.186 182.42-113.509 163.944-166.416-20.286-58.09-129.268-79.445-243.419-47.698-84.178 23.411-147.66 69.161-167.059 114.866v99.248H406.72zm0 0v0z" stroke="#fff" stroke-linecap="round"/><path stroke="#fff" stroke-opacity=".4" d="M347.744 0v708"/><path d="M81.878 456.432c-6.685-6.4-11.9-14.247-14.7-22.263-21.193-60.688 84.082-143.942 235.138-185.953 151.057-42.01 290.692-26.869 311.885 33.819 19.303 55.275-77.957 129.894-207.513 174.397" stroke="#D9793E" stroke-width="3" stroke-linecap="round"/><path d="M160.154 357.184c19.4-45.706 82.882-91.455 167.059-114.866 114.151-31.747 223.134-10.392 243.419 47.697 6.982 19.994-.821 43.617-18.486 67.169" stroke="#F2C94C" stroke-width="3" stroke-linecap="round"/><path opacity=".8" d="M33.869 575.675c-.84 0-1.6-.184-2.28-.552a4.175 4.175 0 01-1.584-1.536c-.384-.656-.576-1.392-.576-2.208 0-.816.192-1.548.576-2.196a4.04 4.04 0 011.596-1.536c.68-.376 1.44-.564 2.28-.564.656 0 1.256.112 1.8.336.544.216 1.008.54 1.392.972l-.78.756c-.632-.664-1.42-.996-2.364-.996-.624 0-1.188.14-1.692.42-.504.28-.9.668-1.188 1.164a3.244 3.244 0 00-.42 1.644c0 .608.14 1.16.42 1.656.288.488.684.872 1.188 1.152.504.28 1.068.42 1.692.42.936 0 1.724-.336 2.364-1.008l.78.756c-.384.432-.852.76-1.404.984a4.684 4.684 0 01-1.8.336zm10.25-2.784h-1.236v2.688H41.73v-2.688h-1.236l-1.752 2.688h-1.368l2.184-3.288-2.016-3.072h1.224l1.716 2.688h1.248v-2.688h1.152v2.688h1.248l1.716-2.688h1.236l-2.016 3.084 2.184 3.276h-1.368l-1.764-2.688zm6.55-3.732c.88 0 1.552.216 2.016.648.472.432.708 1.076.708 1.932v3.84h-1.092v-.84a1.853 1.853 0 01-.828.684c-.352.152-.772.228-1.26.228-.712 0-1.284-.172-1.716-.516-.424-.344-.636-.796-.636-1.356s.204-1.008.612-1.344c.408-.344 1.056-.516 1.944-.516h1.824v-.228c0-.496-.144-.876-.432-1.14-.288-.264-.712-.396-1.272-.396-.376 0-.744.064-1.104.192a2.76 2.76 0 00-.912.492l-.48-.864c.328-.264.72-.464 1.176-.6.456-.144.94-.216 1.452-.216zm-.264 5.604c.44 0 .82-.096 1.14-.288.32-.2.552-.48.696-.84v-.888h-1.776c-.976 0-1.464.328-1.464.984 0 .32.124.572.372.756.248.184.592.276 1.032.276zm9.803-4.536H57.88v5.352h-1.152v-5.352H54.4v-1.008h5.808v1.008zm1.178-1.008h1.151v4.632l3.9-4.632h1.044v6.36H66.33v-4.632l-3.889 4.632h-1.056v-6.36zm14.08 3.216c0 .088-.008.204-.024.348h-5.16c.072.56.316 1.012.732 1.356.424.336.948.504 1.572.504.76 0 1.372-.256 1.836-.768l.636.744a2.777 2.777 0 01-1.08.768c-.424.176-.9.264-1.428.264-.672 0-1.268-.136-1.788-.408a3.033 3.033 0 01-1.212-1.164 3.357 3.357 0 01-.42-1.68c0-.616.136-1.172.408-1.668.28-.496.66-.88 1.14-1.152a3.244 3.244 0 011.644-.42c.608 0 1.148.14 1.62.42.48.272.852.656 1.116 1.152.272.496.408 1.064.408 1.704zm-3.144-2.304c-.552 0-1.016.168-1.392.504-.368.336-.584.776-.648 1.32h4.08c-.064-.536-.284-.972-.66-1.308-.368-.344-.828-.516-1.38-.516zm-37.337 18.728H32.8v2.148h-1.008v-2.148h-2.184v-.948h2.184v-2.16H32.8v2.16h2.184v.948zm-5.064 14.36h1.152v2.7h3.624v-2.7h1.152v6.36h-1.152v-2.664h-3.624v2.664H29.92v-6.36zm10.436-.06c.88 0 1.552.216 2.016.648.472.432.708 1.076.708 1.932v3.84h-1.092v-.84a1.853 1.853 0 01-.828.684c-.352.152-.772.228-1.26.228-.712 0-1.284-.172-1.716-.516-.424-.344-.636-.796-.636-1.356s.204-1.008.612-1.344c.408-.344 1.056-.516 1.944-.516h1.824v-.228c0-.496-.144-.876-.432-1.14-.288-.264-.712-.396-1.272-.396-.376 0-.744.064-1.104.192a2.76 2.76 0 00-.912.492l-.48-.864c.328-.264.72-.464 1.176-.6.456-.144.94-.216 1.452-.216zm-.264 5.604c.44 0 .82-.096 1.14-.288.32-.2.552-.48.696-.84v-.888h-1.776c-.976 0-1.464.328-1.464.984 0 .32.124.572.372.756.248.184.592.276 1.032.276zm8.434-5.604c.616 0 1.168.136 1.656.408.488.272.868.652 1.14 1.14.28.488.42 1.052.42 1.692 0 .64-.14 1.208-.42 1.704a2.894 2.894 0 01-1.14 1.14 3.343 3.343 0 01-1.656.408c-.456 0-.876-.088-1.26-.264a2.621 2.621 0 01-.96-.768v3.288h-1.152v-8.688h1.104v1.008c.256-.352.58-.616.972-.792a3.012 3.012 0 011.296-.276zm-.096 5.484a2.15 2.15 0 001.092-.276 2.03 2.03 0 00.768-.792c.192-.344.288-.736.288-1.176 0-.44-.096-.828-.288-1.164a1.93 1.93 0 00-.768-.792 2.15 2.15 0 00-1.092-.276c-.4 0-.764.096-1.092.288-.32.184-.576.444-.768.78a2.385 2.385 0 00-.276 1.164c0 .44.092.832.276 1.176.184.336.44.6.768.792.328.184.692.276 1.092.276zm10.486-5.424l-3.084 6.996c-.272.648-.592 1.104-.96 1.368-.36.264-.796.396-1.308.396-.312 0-.616-.052-.912-.156a1.807 1.807 0 01-.72-.432l.492-.864c.328.312.708.468 1.14.468.28 0 .512-.076.696-.228.192-.144.364-.396.516-.756l.204-.444-2.808-6.348h1.2l2.22 5.088 2.196-5.088h1.128zm6.6 3.672h-1.236v2.688H63.13v-2.688h-1.236l-1.752 2.688h-1.368l2.184-3.288-2.016-3.072h1.224l1.716 2.688h1.248v-2.688h1.152v2.688h1.248l1.716-2.688h1.236l-2.016 3.084 2.184 3.276h-1.368l-1.764-2.688zm4.4-3.672h1.152v2.7h3.624v-2.7h1.152v6.36h-1.152v-2.664h-3.624v2.664h-1.152v-6.36zm10.892 6.432c-.632 0-1.2-.14-1.704-.42-.504-.28-.9-.664-1.188-1.152a3.357 3.357 0 01-.42-1.68c0-.624.14-1.18.42-1.668.288-.496.684-.88 1.188-1.152a3.449 3.449 0 011.704-.42c.632 0 1.196.14 1.692.42.504.272.896.656 1.176 1.152.288.488.432 1.044.432 1.668 0 .624-.144 1.184-.432 1.68-.28.488-.672.872-1.176 1.152-.496.28-1.06.42-1.692.42zm0-1.008a2.15 2.15 0 001.092-.276 2.03 2.03 0 00.768-.792c.184-.344.276-.736.276-1.176 0-.44-.092-.828-.276-1.164a1.93 1.93 0 00-.768-.792 2.15 2.15 0 00-1.092-.276c-.408 0-.776.092-1.104.276-.32.184-.576.448-.768.792a2.385 2.385 0 00-.276 1.164c0 .44.092.832.276 1.176.192.336.448.6.768.792.328.184.696.276 1.104.276zm10.711-2.208c0 .088-.008.204-.024.348h-5.16c.072.56.316 1.012.732 1.356.424.336.948.504 1.572.504.76 0 1.372-.256 1.836-.768l.636.744a2.777 2.777 0 01-1.08.768c-.424.176-.9.264-1.428.264-.672 0-1.268-.136-1.788-.408a3.033 3.033 0 01-1.212-1.164 3.357 3.357 0 01-.42-1.68c0-.616.136-1.172.408-1.668.28-.496.66-.88 1.14-1.152a3.244 3.244 0 011.644-.42c.608 0 1.148.14 1.62.42.48.272.852.656 1.116 1.152.272.496.408 1.064.408 1.704zm-3.144-2.304c-.552 0-1.016.168-1.392.504-.368.336-.584.776-.648 1.32h4.08c-.064-.536-.284-.972-.66-1.308-.368-.344-.828-.516-1.38-.516zm14.622 4.44v2.484h-1.08v-1.476h-5.316v1.476H95.51v-2.484h.336c.408-.024.688-.312.84-.864.152-.552.256-1.332.312-2.34l.096-2.148h4.932v5.352h.972zm-4.944-3.12c-.032.8-.1 1.464-.204 1.992-.096.52-.276.896-.54 1.128h3.564v-4.344h-2.76l-.06 1.224zm8.713-2.292c.88 0 1.552.216 2.016.648.472.432.708 1.076.708 1.932v3.84h-1.092v-.84a1.853 1.853 0 01-.828.684c-.352.152-.772.228-1.26.228-.712 0-1.284-.172-1.716-.516-.424-.344-.636-.796-.636-1.356s.204-1.008.612-1.344c.408-.344 1.056-.516 1.944-.516h1.824v-.228c0-.496-.144-.876-.432-1.14-.288-.264-.712-.396-1.272-.396-.376 0-.744.064-1.104.192a2.76 2.76 0 00-.912.492l-.48-.864c.328-.264.72-.464 1.176-.6.456-.144.94-.216 1.452-.216zm-.264 5.604c.44 0 .82-.096 1.14-.288.32-.2.552-.48.696-.84v-.888h-1.776c-.976 0-1.464.328-1.464.984 0 .32.124.572.372.756.248.184.592.276 1.032.276zm9.394-2.484c.824.208 1.236.724 1.236 1.548 0 .56-.212.992-.636 1.296-.416.304-1.04.456-1.872.456h-3.06v-6.36h2.952c.752 0 1.34.144 1.764.432.424.28.636.68.636 1.2 0 .336-.092.628-.276.876-.176.24-.424.424-.744.552zm-3.204-.324h1.728c.44 0 .772-.08.996-.24.232-.16.348-.392.348-.696 0-.608-.448-.912-1.344-.912h-1.728v1.848zm1.848 2.736c.48 0 .84-.076 1.08-.228.24-.152.36-.388.36-.708 0-.328-.112-.572-.336-.732-.216-.16-.56-.24-1.032-.24h-1.92v1.908h1.848zm9.855-5.472v6.36h-1.152v-5.352h-2.736l-.072 1.416c-.04.856-.116 1.572-.228 2.148-.112.568-.296 1.024-.552 1.368-.256.344-.612.516-1.068.516-.208 0-.444-.036-.708-.108l.072-.972c.104.024.2.036.288.036.32 0 .56-.14.72-.42.16-.28.264-.612.312-.996.048-.384.092-.932.132-1.644l.108-2.352h4.884zm7.976 3.216c0 .088-.008.204-.024.348h-5.16c.072.56.316 1.012.732 1.356.424.336.948.504 1.572.504.76 0 1.372-.256 1.836-.768l.636.744a2.777 2.777 0 01-1.08.768c-.424.176-.9.264-1.428.264-.672 0-1.268-.136-1.788-.408a3.033 3.033 0 01-1.212-1.164 3.357 3.357 0 01-.42-1.68c0-.616.136-1.172.408-1.668.28-.496.66-.88 1.14-1.152a3.244 3.244 0 011.644-.42c.608 0 1.148.14 1.62.42.48.272.852.656 1.116 1.152.272.496.408 1.064.408 1.704zm-3.144-2.304c-.552 0-1.016.168-1.392.504-.368.336-.584.776-.648 1.32h4.08c-.064-.536-.284-.972-.66-1.308-.368-.344-.828-.516-1.38-.516zm4.931-.912h1.152v2.7h3.624v-2.7h1.152v6.36h-1.152v-2.664h-3.624v2.664h-1.152v-6.36zm8.168 0h1.152v4.632l3.9-4.632h1.044v6.36h-1.152v-4.632l-3.888 4.632h-1.056v-6.36zm14.08 3.216c0 .088-.008.204-.024.348h-5.16c.072.56.316 1.012.732 1.356.424.336.948.504 1.572.504.76 0 1.372-.256 1.836-.768l.636.744a2.777 2.777 0 01-1.08.768c-.424.176-.9.264-1.428.264-.672 0-1.268-.136-1.788-.408a3.033 3.033 0 01-1.212-1.164 3.357 3.357 0 01-.42-1.68c0-.616.136-1.172.408-1.668.28-.496.66-.88 1.14-1.152a3.244 3.244 0 011.644-.42c.608 0 1.148.14 1.62.42.48.272.852.656 1.116 1.152.272.496.408 1.064.408 1.704zm-3.144-2.304c-.552 0-1.016.168-1.392.504-.368.336-.584.776-.648 1.32h4.08c-.064-.536-.284-.972-.66-1.308-.368-.344-.828-.516-1.38-.516zm384.876-36.952c1.088 0 1.944.26 2.568.78.624.52.936 1.236.936 2.148 0 .912-.312 1.628-.936 2.148-.624.52-1.48.78-2.568.78h-2.076v2.544h-1.2v-8.4h3.276zm-.036 4.812c.76 0 1.34-.16 1.74-.48.4-.328.6-.796.6-1.404 0-.608-.2-1.072-.6-1.392-.4-.328-.98-.492-1.74-.492h-2.04v3.768h2.04zm7.227-2.832c.88 0 1.552.216 2.016.648.472.432.708 1.076.708 1.932v3.84h-1.092v-.84a1.853 1.853 0 01-.828.684c-.352.152-.772.228-1.26.228-.712 0-1.284-.172-1.716-.516-.424-.344-.636-.796-.636-1.356s.204-1.008.612-1.344c.408-.344 1.056-.516 1.944-.516h1.824v-.228c0-.496-.144-.876-.432-1.14-.288-.264-.712-.396-1.272-.396-.376 0-.744.064-1.104.192a2.76 2.76 0 00-.912.492l-.48-.864c.328-.264.72-.464 1.176-.6.456-.144.94-.216 1.452-.216zm-.264 5.604c.44 0 .82-.096 1.14-.288.32-.2.552-.48.696-.84v-.888h-1.776c-.976 0-1.464.328-1.464.984 0 .32.124.572.372.756.248.184.592.276 1.032.276zm7.834.888c-.648 0-1.228-.14-1.74-.42-.504-.28-.9-.664-1.188-1.152a3.284 3.284 0 01-.432-1.68c0-.624.144-1.18.432-1.668.288-.496.684-.88 1.188-1.152.512-.28 1.092-.42 1.74-.42.576 0 1.088.116 1.536.348a2.47 2.47 0 011.056 1.008l-.876.564a1.957 1.957 0 00-.744-.684 2.122 2.122 0 00-.984-.228 2.31 2.31 0 00-1.128.276 2.008 2.008 0 00-.78.792 2.385 2.385 0 00-.276 1.164c0 .448.092.844.276 1.188.192.336.452.596.78.78a2.31 2.31 0 001.128.276c.36 0 .688-.076.984-.228.296-.152.544-.38.744-.684l.876.552c-.248.44-.6.78-1.056 1.02-.448.232-.96.348-1.536.348zm8.741-5.424h-2.328v5.352h-1.152v-5.352h-2.328v-1.008h5.808v1.008zm6.173-1.008v6.36h-1.032v-2.016h-1.98l-1.392 2.016h-1.236l1.548-2.172c-.48-.144-.848-.38-1.104-.708-.256-.336-.384-.752-.384-1.248 0-.728.248-1.28.744-1.656.496-.384 1.18-.576 2.052-.576h2.784zm-4.404 2.268c0 .424.132.74.396.948.272.2.676.3 1.212.3h1.764v-2.508h-1.716c-1.104 0-1.656.42-1.656 1.26zm12.436 1.404h-1.236v2.688h-1.152v-2.688h-1.236l-1.752 2.688h-1.368l2.184-3.288-2.016-3.072h1.224l1.716 2.688h1.248v-2.688h1.152v2.688h1.248l1.716-2.688h1.236l-2.016 3.084 2.184 3.276h-1.368l-1.764-2.688zm9.936-.456c0 .088-.008.204-.024.348h-5.16c.072.56.316 1.012.732 1.356.424.336.948.504 1.572.504.76 0 1.372-.256 1.836-.768l.636.744a2.777 2.777 0 01-1.08.768c-.424.176-.9.264-1.428.264-.672 0-1.268-.136-1.788-.408a3.033 3.033 0 01-1.212-1.164 3.357 3.357 0 01-.42-1.68c0-.616.136-1.172.408-1.668.28-.496.66-.88 1.14-1.152a3.244 3.244 0 011.644-.42c.608 0 1.148.14 1.62.42.48.272.852.656 1.116 1.152.272.496.408 1.064.408 1.704zm-3.144-2.304c-.552 0-1.016.168-1.392.504-.368.336-.584.776-.648 1.32h4.08c-.064-.536-.284-.972-.66-1.308-.368-.344-.828-.516-1.38-.516zm4.931-.912h1.152v2.7h3.624v-2.7h1.152v6.36h-1.152v-2.664h-3.624v2.664h-1.152v-6.36zm8.168 0h1.152v4.632l3.9-4.632h1.044v6.36h-1.152v-4.632l-3.888 4.632h-1.056v-6.36zm14.08 3.216c0 .088-.008.204-.024.348h-5.16c.072.56.316 1.012.732 1.356.424.336.948.504 1.572.504.76 0 1.372-.256 1.836-.768l.636.744a2.777 2.777 0 01-1.08.768c-.424.176-.9.264-1.428.264-.672 0-1.268-.136-1.788-.408a3.033 3.033 0 01-1.212-1.164 3.357 3.357 0 01-.42-1.68c0-.616.136-1.172.408-1.668.28-.496.66-.88 1.14-1.152a3.244 3.244 0 011.644-.42c.608 0 1.148.14 1.62.42.48.272.852.656 1.116 1.152.272.496.408 1.064.408 1.704zm-3.144-2.304c-.552 0-1.016.168-1.392.504-.368.336-.584.776-.648 1.32h4.08c-.064-.536-.284-.972-.66-1.308-.368-.344-.828-.516-1.38-.516zm-.212 18.728h-2.184v2.148h-1.008v-2.148h-2.184v-.948h2.184v-2.16h1.008v2.16h2.184v.948zm-123.13 14.36h1.152v2.7h3.624v-2.7h1.152v6.36h-1.152v-2.664h-3.624v2.664h-1.152v-6.36zm10.436-.06c.88 0 1.552.216 2.016.648.472.432.708 1.076.708 1.932v3.84h-1.092v-.84a1.853 1.853 0 01-.828.684c-.352.152-.772.228-1.26.228-.712 0-1.284-.172-1.716-.516-.424-.344-.636-.796-.636-1.356s.204-1.008.612-1.344c.408-.344 1.056-.516 1.944-.516h1.824v-.228c0-.496-.144-.876-.432-1.14-.288-.264-.712-.396-1.272-.396-.376 0-.744.064-1.104.192a2.76 2.76 0 00-.912.492l-.48-.864c.328-.264.72-.464 1.176-.6.456-.144.94-.216 1.452-.216zm-.264 5.604c.44 0 .82-.096 1.14-.288.32-.2.552-.48.696-.84v-.888h-1.776c-.976 0-1.464.328-1.464.984 0 .32.124.572.372.756.248.184.592.276 1.032.276zm8.434-5.604c.616 0 1.168.136 1.656.408.488.272.868.652 1.14 1.14.28.488.42 1.052.42 1.692 0 .64-.14 1.208-.42 1.704a2.894 2.894 0 01-1.14 1.14 3.343 3.343 0 01-1.656.408c-.456 0-.876-.088-1.26-.264a2.621 2.621 0 01-.96-.768v3.288h-1.152v-8.688h1.104v1.008c.256-.352.58-.616.972-.792a3.012 3.012 0 011.296-.276zm-.096 5.484a2.15 2.15 0 001.092-.276 2.03 2.03 0 00.768-.792c.192-.344.288-.736.288-1.176 0-.44-.096-.828-.288-1.164a1.93 1.93 0 00-.768-.792 2.15 2.15 0 00-1.092-.276c-.4 0-.764.096-1.092.288-.32.184-.576.444-.768.78a2.385 2.385 0 00-.276 1.164c0 .44.092.832.276 1.176.184.336.44.6.768.792.328.184.692.276 1.092.276zm10.486-5.424l-3.084 6.996c-.272.648-.592 1.104-.96 1.368-.36.264-.796.396-1.308.396-.312 0-.616-.052-.912-.156a1.807 1.807 0 01-.72-.432l.492-.864c.328.312.708.468 1.14.468.28 0 .512-.076.696-.228.192-.144.364-.396.516-.756l.204-.444-2.808-6.348h1.2l2.22 5.088 2.196-5.088h1.128zm6.601 3.672h-1.236v2.688h-1.152v-2.688h-1.236l-1.752 2.688h-1.368l2.184-3.288-2.016-3.072h1.224l1.716 2.688h1.248v-2.688h1.152v2.688h1.248l1.716-2.688h1.236l-2.016 3.084 2.184 3.276h-1.368l-1.764-2.688zm4.399-3.672h1.152v2.7h3.624v-2.7h1.152v6.36h-1.152v-2.664h-3.624v2.664h-1.152v-6.36zm10.892 6.432c-.632 0-1.2-.14-1.704-.42-.504-.28-.9-.664-1.188-1.152a3.357 3.357 0 01-.42-1.68c0-.624.14-1.18.42-1.668.288-.496.684-.88 1.188-1.152a3.449 3.449 0 011.704-.42c.632 0 1.196.14 1.692.42.504.272.896.656 1.176 1.152.288.488.432 1.044.432 1.668 0 .624-.144 1.184-.432 1.68-.28.488-.672.872-1.176 1.152-.496.28-1.06.42-1.692.42zm0-1.008a2.15 2.15 0 001.092-.276 2.03 2.03 0 00.768-.792c.184-.344.276-.736.276-1.176 0-.44-.092-.828-.276-1.164a1.93 1.93 0 00-.768-.792 2.15 2.15 0 00-1.092-.276c-.408 0-.776.092-1.104.276-.32.184-.576.448-.768.792a2.385 2.385 0 00-.276 1.164c0 .44.092.832.276 1.176.192.336.448.6.768.792.328.184.696.276 1.104.276zm10.712-2.208c0 .088-.008.204-.024.348h-5.16c.072.56.316 1.012.732 1.356.424.336.948.504 1.572.504.76 0 1.372-.256 1.836-.768l.636.744a2.777 2.777 0 01-1.08.768c-.424.176-.9.264-1.428.264-.672 0-1.268-.136-1.788-.408a3.033 3.033 0 01-1.212-1.164 3.357 3.357 0 01-.42-1.68c0-.616.136-1.172.408-1.668.28-.496.66-.88 1.14-1.152a3.244 3.244 0 011.644-.42c.608 0 1.148.14 1.62.42.48.272.852.656 1.116 1.152.272.496.408 1.064.408 1.704zm-3.144-2.304c-.552 0-1.016.168-1.392.504-.368.336-.584.776-.648 1.32h4.08c-.064-.536-.284-.972-.66-1.308-.368-.344-.828-.516-1.38-.516zm14.621 4.44v2.484h-1.08v-1.476h-5.316v1.476h-1.092v-2.484h.336c.408-.024.688-.312.84-.864.152-.552.256-1.332.312-2.34l.096-2.148h4.932v5.352h.972zm-4.944-3.12c-.032.8-.1 1.464-.204 1.992-.096.52-.276.896-.54 1.128h3.564v-4.344h-2.76l-.06 1.224zm8.713-2.292c.88 0 1.552.216 2.016.648.472.432.708 1.076.708 1.932v3.84h-1.092v-.84a1.853 1.853 0 01-.828.684c-.352.152-.772.228-1.26.228-.712 0-1.284-.172-1.716-.516-.424-.344-.636-.796-.636-1.356s.204-1.008.612-1.344c.408-.344 1.056-.516 1.944-.516h1.824v-.228c0-.496-.144-.876-.432-1.14-.288-.264-.712-.396-1.272-.396-.376 0-.744.064-1.104.192a2.76 2.76 0 00-.912.492l-.48-.864c.328-.264.72-.464 1.176-.6.456-.144.94-.216 1.452-.216zm-.264 5.604c.44 0 .82-.096 1.14-.288.32-.2.552-.48.696-.84v-.888h-1.776c-.976 0-1.464.328-1.464.984 0 .32.124.572.372.756.248.184.592.276 1.032.276zm9.395-2.484c.824.208 1.236.724 1.236 1.548 0 .56-.212.992-.636 1.296-.416.304-1.04.456-1.872.456h-3.06v-6.36h2.952c.752 0 1.34.144 1.764.432.424.28.636.68.636 1.2 0 .336-.092.628-.276.876-.176.24-.424.424-.744.552zm-3.204-.324h1.728c.44 0 .772-.08.996-.24.232-.16.348-.392.348-.696 0-.608-.448-.912-1.344-.912h-1.728v1.848zm1.848 2.736c.48 0 .84-.076 1.08-.228.24-.152.36-.388.36-.708 0-.328-.112-.572-.336-.732-.216-.16-.56-.24-1.032-.24h-1.92v1.908h1.848zm9.855-5.472v6.36h-1.152v-5.352h-2.736l-.072 1.416c-.04.856-.116 1.572-.228 2.148-.112.568-.296 1.024-.552 1.368-.256.344-.612.516-1.068.516-.208 0-.444-.036-.708-.108l.072-.972c.104.024.2.036.288.036.32 0 .56-.14.72-.42.16-.28.264-.612.312-.996.048-.384.092-.932.132-1.644l.108-2.352h4.884zm7.975 3.216c0 .088-.008.204-.024.348h-5.16c.072.56.316 1.012.732 1.356.424.336.948.504 1.572.504.76 0 1.372-.256 1.836-.768l.636.744a2.777 2.777 0 01-1.08.768c-.424.176-.9.264-1.428.264-.672 0-1.268-.136-1.788-.408a3.033 3.033 0 01-1.212-1.164 3.357 3.357 0 01-.42-1.68c0-.616.136-1.172.408-1.668.28-.496.66-.88 1.14-1.152a3.244 3.244 0 011.644-.42c.608 0 1.148.14 1.62.42.48.272.852.656 1.116 1.152.272.496.408 1.064.408 1.704zm-3.144-2.304c-.552 0-1.016.168-1.392.504-.368.336-.584.776-.648 1.32h4.08c-.064-.536-.284-.972-.66-1.308-.368-.344-.828-.516-1.38-.516zm4.931-.912h1.152v2.7h3.624v-2.7h1.152v6.36h-1.152v-2.664h-3.624v2.664h-1.152v-6.36zm8.168 0h1.152v4.632l3.9-4.632h1.044v6.36h-1.152v-4.632l-3.888 4.632h-1.056v-6.36zm14.08 3.216c0 .088-.008.204-.024.348h-5.16c.072.56.316 1.012.732 1.356.424.336.948.504 1.572.504.76 0 1.372-.256 1.836-.768l.636.744a2.777 2.777 0 01-1.08.768c-.424.176-.9.264-1.428.264-.672 0-1.268-.136-1.788-.408a3.033 3.033 0 01-1.212-1.164 3.357 3.357 0 01-.42-1.68c0-.616.136-1.172.408-1.668.28-.496.66-.88 1.14-1.152a3.244 3.244 0 011.644-.42c.608 0 1.148.14 1.62.42.48.272.852.656 1.116 1.152.272.496.408 1.064.408 1.704zm-3.144-2.304c-.552 0-1.016.168-1.392.504-.368.336-.584.776-.648 1.32h4.08c-.064-.536-.284-.972-.66-1.308-.368-.344-.828-.516-1.38-.516z" fill="#fff"/></svg>